<?xml version="1.0" encoding="UTF-8" standalone="no"?>
<svg width="24px" height="24px" viewBox="0 0 24 24" version="1.1" xmlns="http://www.w3.org/2000/svg" xmlns:xlink="http://www.w3.org/1999/xlink">
    <!-- Generator: Sketch 50.2 (55047) - http://www.bohemiancoding.com/sketch -->
    <title>empty-star</title>
    <desc>Created with Sketch.</desc>
    <defs></defs>
    <g id="Page-1" stroke="none" stroke-width="1" fill="none" fill-rule="evenodd">
        <path d="M18.894,24.004 C18.652,24.004 18.409,23.946 18.192,23.837 L12,20.771 L5.813,23.835 C5.596,23.944 5.361,24 5.117,24 C4.522,24 3.986,23.67 3.719,23.139 C3.547,22.797 3.507,22.405 3.605,22.036 L5.455,15.315 L0.462,10.37 C0.167,10.077 0.003,9.688 0.001,9.272 C9.57350518e-15,8.857 0.16,8.466 0.452,8.17 C0.712,7.907 1.059,7.746 1.428,7.715 L7.446,7.119 L10.602,0.862 C10.795,0.485 11.12,0.208 11.519,0.08 C11.676,0.029 11.839,0.004 12.002,0.004 C12.248,0.004 12.495,0.064 12.716,0.177 C13.011,0.328 13.247,0.564 13.397,0.859 C13.398,0.862 16.559,7.124 16.559,7.124 L22.589,7.722 C23.434,7.792 24.069,8.545 23.998,9.399 C23.967,9.768 23.806,10.114 23.543,10.375 L18.554,15.319 L20.403,22.034 C20.625,22.872 20.128,23.732 19.295,23.953 C19.165,23.986 19.03,24.004 18.894,24.004 Z M12,19.184 C12.115,19.184 12.231,19.211 12.334,19.263 L18.862,22.495 C18.874,22.501 18.884,22.504 18.894,22.504 C18.944,22.493 18.964,22.458 18.955,22.425 L16.992,15.294 C16.92,15.033 16.995,14.753 17.187,14.562 L22.487,9.309 C22.496,9.3 22.502,9.288 22.503,9.275 C22.505,9.245 22.482,9.218 22.453,9.215 L16.001,8.576 C15.744,8.55 15.522,8.398 15.405,8.168 L12.06,1.539 C12.054,1.528 12.044,1.518 12.031,1.511 C12.022,1.506 12.011,1.504 12,1.504 C11.96,1.513 11.947,1.524 11.938,1.541 L8.6,8.163 C8.484,8.393 8.261,8.546 8.004,8.572 L1.564,9.21 C1.532,9.212 1.521,9.223 1.518,9.226 C1.507,9.237 1.502,9.25 1.502,9.265 C1.502,9.28 1.507,9.293 1.518,9.303 L6.822,14.556 C7.014,14.746 7.089,15.026 7.017,15.288 L5.052,22.426 C5.05,22.432 5.05,22.448 5.058,22.465 C5.071,22.49 5.097,22.499 5.115,22.499 C5.125,22.499 5.134,22.497 5.142,22.493 L11.666,19.262 C11.769,19.211 11.885,19.184 12,19.184 Z" id="empty-star" fill="#9B9B9B" fill-rule="nonzero"></path>
    </g>
</svg>