<?xml version="1.0" encoding="UTF-8" standalone="no"?>
<svg width="24px" height="24px" viewBox="0 0 24 24" version="1.1" xmlns="http://www.w3.org/2000/svg" xmlns:xlink="http://www.w3.org/1999/xlink">
    <!-- Generator: Sketch 50.2 (55047) - http://www.bohemiancoding.com/sketch -->
    <title>full-star</title>
    <desc>Created with Sketch.</desc>
    <defs></defs>
    <g id="Page-1" stroke="none" stroke-width="1" fill="none" fill-rule="evenodd">
        <path d="M18.894,24.004 C18.652,24.004 18.409,23.946 18.192,23.837 L12,20.771 L5.813,23.835 C5.596,23.944 5.361,24 5.117,24 C4.522,24 3.986,23.67 3.719,23.139 C3.547,22.797 3.507,22.405 3.605,22.036 L5.455,15.315 L0.462,10.37 C0.167,10.077 0.003,9.688 0.001,9.272 C9.57350518e-15,8.857 0.16,8.466 0.452,8.17 C0.712,7.907 1.059,7.746 1.428,7.715 L7.446,7.119 L10.602,0.862 C10.795,0.485 11.12,0.208 11.519,0.08 C11.676,0.029 11.839,0.004 12.002,0.004 C12.248,0.004 12.495,0.064 12.716,0.177 C13.011,0.328 13.247,0.564 13.397,0.859 C13.398,0.862 16.559,7.124 16.559,7.124 L22.589,7.722 C23.434,7.792 24.069,8.545 23.998,9.399 C23.967,9.768 23.806,10.114 23.543,10.375 L18.554,15.319 L20.403,22.034 C20.625,22.872 20.128,23.732 19.295,23.953 C19.165,23.986 19.03,24.004 18.894,24.004 Z" id="full-star" fill="#F5A623" fill-rule="nonzero"></path>
    </g>
</svg>