<?xml version="1.0" standalone="no"?>
<!DOCTYPE svg PUBLIC "-//W3C//DTD SVG 1.1//EN" "http://www.w3.org/Graphics/SVG/1.1/DTD/svg11.dtd" >
<svg xmlns="http://www.w3.org/2000/svg">
<metadata>Generated by IcoMoon</metadata>
<defs>
<font id="houzez-iconfont" horiz-adv-x="1024">
<font-face units-per-em="1024" ascent="960" descent="-64" />
<missing-glyph horiz-adv-x="1024" />
<glyph unicode="&#x20;" horiz-adv-x="512" d="" />
<glyph unicode="&#xe900;" glyph-name="accounting-document" d="M160-85.333c-52.949 0-96 43.051-96 96v832c0 52.949 43.051 96 96 96h453.504c25.643 0 49.707-9.984 67.84-28.075l250.539-250.539c18.133-18.133 28.117-42.24 28.117-67.84v-581.547c0-52.949-43.051-96-96-96h-704zM160 874.667c-17.664 0-32-14.336-32-32v-832c0-17.664 14.336-32 32-32h704c17.664 0 32 14.336 32 32v544h-224c-52.949 0-96 43.051-96 96v224h-416zM640 650.667c0-17.664 14.336-32 32-32h210.731l-242.731 242.731v-210.731zM343.979 330.667c-17.664 0-32 14.336-32 32v15.061c-28.8 6.528-54.827 23.125-72.917 46.891-5.163 6.784-7.381 15.189-6.229 23.68 1.152 8.448 5.504 16 12.331 21.163 5.589 4.267 12.331 6.528 19.371 6.528 10.069 0 19.371-4.608 25.472-12.629 11.819-15.531 30.549-24.789 50.133-24.789l2.432 0.043c33.024 0 57.259 17.963 57.259 34.005s-23.893 33.963-55.851 33.963c-66.176 0-119.979 43.989-119.979 98.048 0 44.885 36.224 82.901 87.979 94.421v15.616c0 17.664 14.336 32 32 32s32-14.336 32-32v-15.189c28.843-6.571 54.784-23.125 72.747-46.763 5.163-6.784 7.381-15.189 6.229-23.68s-5.547-16-12.331-21.163c-5.589-4.267-12.288-6.528-19.328-6.528-9.941 0-19.499 4.736-25.472 12.629-11.776 15.531-30.464 24.789-49.92 24.789-0.853 0-1.707 0-2.56-0.043-33.109-0.043-57.344-18.005-57.344-34.048 0-16.085 23.936-34.048 55.979-34.048 66.091 0 119.851-43.947 119.851-97.963 0-44.8-36.181-82.816-87.851-94.379v-15.616c0-17.664-14.336-32-32-32zM512 266.667c-17.664 0-32 14.336-32 32s14.336 32 32 32h256c17.664 0 32-14.336 32-32s-14.336-32-32-32h-256zM288 74.667c-17.664 0-32 14.336-32 32s14.336 32 32 32h480c17.664 0 32-14.336 32-32s-14.336-32-32-32h-480z" />
<glyph unicode="&#xe901;" glyph-name="add-circle" d="M512 202.667c-17.664 0-32 14.336-32 32v160h-160c-17.664 0-32 14.336-32 32s14.336 32 32 32h160v160c0 17.664 14.336 32 32 32s32-14.336 32-32v-160h160c17.664 0 32-14.336 32-32s-14.336-32-32-32h-160v-160c0-17.664-14.336-32-32-32zM512-85.333c-282.325 0-512 229.675-512 512s229.675 512 512 512c282.325 0 512-229.675 512-512s-229.675-512-512-512zM512 874.667c-247.040 0-448-200.96-448-448s200.96-448 448-448c247.040 0 448 200.96 448 448s-200.96 448-448 448z" />
<glyph unicode="&#xe902;" glyph-name="add-square" d="M512 202.667c-17.664 0-32 14.336-32 32v160h-160c-17.664 0-32 14.336-32 32s14.336 32 32 32h160v160c0 17.664 14.336 32 32 32s32-14.336 32-32v-160h160c17.664 0 32-14.336 32-32s-14.336-32-32-32h-160v-160c0-17.664-14.336-32-32-32zM160-85.333c-88.235 0-160 71.765-160 160v704c0 88.235 71.765 160 160 160h704c88.235 0 160-71.765 160-160v-704c0-88.235-71.765-160-160-160h-704zM160 874.667c-52.949 0-96-43.051-96-96v-704c0-52.949 43.051-96 96-96h704c52.949 0 96 43.051 96 96v704c0 52.949-43.051 96-96 96h-704z" />
<glyph unicode="&#xe903;" glyph-name="add" d="M512-85.333c-17.664 0-32 14.336-32 32v448h-448c-17.664 0-32 14.336-32 32s14.336 32 32 32h448v448c0 17.664 14.336 32 32 32s32-14.336 32-32v-448h448c17.664 0 32-14.336 32-32s-14.336-32-32-32h-448v-448c0-17.664-14.336-32-32-32z" />
<glyph unicode="&#xe904;" glyph-name="alarm-bell" d="M511.573-85.376c-20.053 0-40.064 5.12-57.856 14.848-28.373 15.488-49.024 41.131-58.112 72.149-4.992 16.939 4.736 34.731 21.675 39.723 2.944 0.853 5.973 1.28 9.003 1.28 14.080 0 26.709-9.429 30.72-22.955 4.309-14.635 14.037-26.709 27.392-34.048 8.405-4.565 17.792-6.997 27.221-6.997 5.419 0 10.88 0.811 16.171 2.347 18.688 5.504 33.152 19.968 38.656 38.656 3.968 13.525 16.597 22.997 30.72 22.997 3.029 0 6.016-0.427 8.96-1.28 16.939-4.992 26.709-22.784 21.717-39.723-11.648-39.723-42.325-70.4-82.048-82.048-11.179-3.285-22.699-4.949-34.219-4.949zM127.616 106.624c-12.16 0-23.424 7.040-28.757 17.963-5.419 11.093-4.011 24.021 3.541 33.749 0.256 0.384 57.216 82.731 57.216 332.288 0 183.168 139.349 334.293 320 350.549v65.451c0 17.664 14.336 32 32 32s32-14.336 32-32v-65.451c180.651-16.256 320-167.381 320-350.549 0-268.928 53.163-327.936 53.675-328.491 9.301-8.491 12.672-22.699 7.979-34.901-4.864-12.501-16.512-20.608-29.653-20.608h-768zM840.576 170.624c-20.565 52.565-41.003 148.053-41.003 320 0 158.805-129.195 288-288 288s-288-129.195-288-288c0-168.832-24.747-267.819-44.629-320h661.632z" />
<glyph unicode="&#xe905;" glyph-name="analytics-bars-circle" d="M512-85.333c-282.325 0-512 229.675-512 512s229.675 512 512 512c282.325 0 512-229.675 512-512s-229.675-512-512-512zM512 874.667c-247.040 0-448-200.96-448-448s200.96-448 448-448c247.040 0 448 200.96 448 448s-200.96 448-448 448zM288 170.667c-17.664 0-32 14.336-32 32v384c0 17.664 14.336 32 32 32s32-14.336 32-32v-352h64v192c0 17.664 14.336 32 32 32s32-14.336 32-32v-192h64v288c0 17.664 14.336 32 32 32s32-14.336 32-32v-288h64v224c0 17.664 14.336 32 32 32s32-14.336 32-32v-224h32c17.664 0 32-14.336 32-32s-14.336-32-32-32h-448z" />
<glyph unicode="&#xe906;" glyph-name="analytics-bars" d="M32-21.333c-17.664 0-32 14.336-32 32s14.336 32 32 32h32v384c0 35.285 28.715 64 64 64h128c35.285 0 64-28.715 64-64v-384h64v768c0 35.285 28.715 64 64 64h128c35.285 0 64-28.715 64-64v-768h64v576c0 35.285 28.715 64 64 64h128c35.285 0 64-28.715 64-64v-576h32c17.664 0 32-14.336 32-32s-14.336-32-32-32h-960zM896 42.667v576h-128v-576h128zM576 42.667v768h-128v-768h128zM256 42.667v384h-128v-384h128z" />
<glyph unicode="&#xe907;" glyph-name="answer-machine" d="M288-21.333c-50.475 0-97.664 23.765-127.915 64h-0.085c-88.235 0-160 71.765-160 160v448c0 88.235 71.765 160 160 160h0.085c30.251 40.235 77.44 64 127.915 64h64c50.475 0 97.664-23.765 127.915-64h384.043c88.235 0 160-71.765 160-160v-448c0-88.235-71.765-160-160-160h-384.043c-30.208-40.235-77.397-64-127.915-64h-64zM288 810.667c-52.949 0-96-43.051-96-96v-576c0-52.949 43.051-96 96-96h64c52.949 0 96 43.051 96 96v576c0 52.949-43.093 96-96 96h-64zM863.957 106.667c52.949 0 96 43.051 96 96v448c0 52.949-43.051 96-96 96h-355.285c2.219-10.581 3.328-21.291 3.328-32v-576c0-10.709-1.109-21.419-3.328-32h355.285zM130.389 741.846c-38.656-12.544-66.389-48.981-66.389-91.179v-448c0-42.197 27.776-78.635 66.389-91.179-1.579 9.003-2.389 18.091-2.389 27.179v576c0 9.088 0.811 18.176 2.389 27.179zM640 618.667c-17.664 0-32 14.336-32 32s14.336 32 32 32h192c17.664 0 32-14.336 32-32s-14.336-32-32-32h-192zM816 394.667c-26.453 0-48 21.547-48 48 0 25.515 19.968 46.464 45.525 47.829 0.043 0 1.963 0.171 2.475 0.171 26.453 0 48-21.547 48-48s-21.547-48-48-48zM816 234.667c-26.453 0-48 21.547-48 48s21.547 48 48 48c0.597 0 1.365-0.043 2.091-0.128 0.043 0 0.085 0 0.171 0 25.728-1.195 45.781-22.059 45.781-47.872-0.043-26.453-21.589-48-48.043-48zM704 442.667c0-26.51-21.49-48-48-48s-48 21.49-48 48c0 26.51 21.49 48 48 48s48-21.49 48-48zM656 234.667c-26.453 0-48 21.547-48 48 0 25.557 19.968 46.507 45.568 47.829 0.768 0.085 1.749 0.171 2.432 0.171 26.453 0 48-21.547 48-48s-21.547-48-48-48z" />
<glyph unicode="&#xe908;" glyph-name="arrow-button-circle-down" d="M512-85.333c-282.325 0-512 229.675-512 512s229.675 512 512 512c282.325 0 512-229.675 512-512s-229.675-512-512-512zM512 874.667c-247.040 0-448-200.96-448-448s200.96-448 448-448c247.040 0 448 200.96 448 448s-200.96 448-448 448zM512.085 138.624c-4.139 0-8.363 0.384-12.459 1.152-17.621 3.285-32.896 13.269-43.008 28.075-0.512 0.768-0.981 1.493-1.451 2.304l-205.568 362.837c-9.728 17.237-9.6 37.675 0.341 54.741 11.136 19.072 32.768 30.933 56.491 30.933h411.136c23.637 0 45.312-11.819 56.448-30.848 9.984-17.024 10.197-37.461 0.555-54.656l-205.824-363.051c-0.427-0.768-0.939-1.536-1.408-2.304-4.693-6.869-10.581-12.757-17.451-17.451-11.264-7.68-24.32-11.733-37.803-11.733zM509.867 203.478c0.427-0.427 0.939-0.683 1.536-0.768 0.128 0 0.299 0 0.427 0 0.939 0 1.408 0.171 1.877 0.469l199.509 351.488h-402.304l198.955-351.189z" />
<glyph unicode="&#xe909;" glyph-name="arrow-button-circle-left" d="M512-85.333c-282.325 0-512 229.675-512 512s229.675 512 512 512c282.325 0 512-229.675 512-512s-229.675-512-512-512zM512 874.667c-247.040 0-448-200.96-448-448s200.96-448 448-448c247.040 0 448 200.96 448 448s-200.96 448-448 448zM645.419 157.056c-9.387 0-18.773 2.475-27.093 7.211l-362.667 205.611c-0.725 0.384-1.493 0.896-2.219 1.365-6.955 4.779-12.843 10.667-17.579 17.536-10.112 14.805-13.867 32.64-10.581 50.261 3.328 17.621 13.269 32.896 28.075 43.008 0.683 0.469 1.451 0.939 2.219 1.365l362.752 205.611c8.32 4.693 17.664 7.211 27.093 7.211 9.643 0 19.2-2.603 27.605-7.509 19.115-11.179 30.976-32.811 30.976-56.533v-411.136c0-23.723-11.861-45.355-30.933-56.491-8.448-4.907-18.005-7.509-27.648-7.509zM289.024 428.758c-0.427-0.427-0.683-0.939-0.811-1.579-0.171-0.853 0-1.579 0.469-2.304l351.317-199.339v402.176l-350.976-198.955z" />
<glyph unicode="&#xe90a;" glyph-name="arrow-button-circle-right" d="M512-85.333c-282.325 0-512 229.675-512 512s229.675 512 512 512c282.325 0 512-229.675 512-512s-229.675-512-512-512zM512 874.667c-247.040 0-448-200.96-448-448s200.96-448 448-448c247.040 0 448 200.96 448 448s-200.96 448-448 448zM378.581 157.099c-9.643 0-19.2 2.603-27.648 7.509-19.072 11.136-30.933 32.768-30.933 56.491v411.136c0 23.68 11.819 45.312 30.848 56.448 8.491 4.992 18.091 7.637 27.819 7.637 9.301 0 18.603-2.432 26.837-7.040l362.837-205.781c0.853-0.512 1.579-0.939 2.261-1.408 6.912-4.736 12.757-10.581 17.451-17.408 10.155-14.848 13.909-32.683 10.624-50.304s-13.269-32.896-28.032-43.051c-0.725-0.512-1.579-1.024-2.475-1.536l-362.496-205.483c-8.32-4.736-17.707-7.211-27.093-7.211zM384 225.579l350.976 198.955c0.427 0.427 0.683 0.939 0.811 1.579 0.171 0.853 0 1.621-0.469 2.304l-351.317 199.467v-402.304z" />
<glyph unicode="&#xe90b;" glyph-name="arrow-button-circle-up" d="M512-85.333c-282.325 0-512 229.675-512 512s229.675 512 512 512c282.325 0 512-229.675 512-512s-229.675-512-512-512zM512 874.667c-247.040 0-448-200.96-448-448s200.96-448 448-448c247.040 0 448 200.96 448 448s-200.96 448-448 448zM306.432 234.667c-23.68 0-45.312 11.819-56.448 30.848-9.984 17.024-10.197 37.461-0.555 54.656l205.781 362.837c0.469 0.853 0.939 1.579 1.451 2.347 4.651 6.827 10.539 12.672 17.408 17.408 11.264 7.723 24.32 11.776 37.845 11.776 4.139 0 8.32-0.384 12.459-1.152 17.664-3.285 32.939-13.269 43.051-28.075 0.469-0.725 0.981-1.536 1.451-2.389l205.525-362.624c9.771-17.195 9.643-37.632-0.299-54.699-11.136-19.072-32.768-30.933-56.491-30.933h-411.179zM713.088 298.667l-198.955 350.976c-0.427 0.427-0.981 0.683-1.579 0.811l-0.597 0.043c-0.597 0-1.195-0.171-1.707-0.555l-199.467-351.275h402.304z" />
<glyph unicode="&#xe90c;" glyph-name="arrow-button-down-2" d="M512.085-10.666c-5.845 0-11.691 0.811-17.365 2.432-16.213 4.608-29.653 15.275-37.845 29.995l-416.427 735.787c-5.291 9.216-8.235 19.883-8.448 30.72-0.555 35.285 27.648 64.427 62.933 65.067h833.664c11.307-0.171 22.101-3.157 31.488-8.576 14.805-8.533 25.387-22.357 29.824-38.869s2.133-33.749-6.4-48.555l-416.384-735.659c-5.675-10.155-14.123-18.603-24.363-24.277-9.429-5.291-20.011-8.064-30.677-8.064zM512.683 53.12v0zM512.043 54.272l415.872 734.805-831.787 0.256 415.915-735.061z" />
<glyph unicode="&#xe90d;" glyph-name="arrow-button-left-2" d="M863.872-53.333c-11.221 0-22.315 2.987-32 8.619l-735.616 416.341c-10.197 5.675-18.603 14.123-24.32 24.405-8.192 14.677-10.155 31.744-5.547 47.957s15.275 29.653 29.995 37.845l735.744 416.427c9.216 5.333 19.883 8.277 30.805 8.448 17.579-0.085 33.664-6.485 45.568-18.048 12.288-11.904 19.2-27.861 19.456-44.971v-833.579c-0.171-11.307-3.157-22.144-8.619-31.573-11.392-19.669-32.64-31.872-55.467-31.872zM863.659 10.795l0.256 831.915-735.147-416.085 734.891-415.829z" />
<glyph unicode="&#xe90e;" glyph-name="arrow-button-right-2" d="M149.376-53.333c-34.688 0-63.403 28.245-64 62.933v833.664c0.171 11.307 3.157 22.101 8.576 31.488 8.533 14.805 22.357 25.387 38.869 29.824 5.461 1.451 11.051 2.219 16.64 2.219 11.136 0 22.187-2.987 31.915-8.619l735.659-416.384c10.155-5.675 18.603-14.123 24.32-24.363 8.192-14.72 10.155-31.744 5.547-47.957s-15.275-29.653-29.995-37.845l-735.787-416.512c-9.173-5.291-19.797-8.235-30.677-8.448-0.085 0-0.213 0-0.299 0h-0.768zM149.376 10.155l735.019 416.555-735.019 416v-832.555zM885.547 427.35v0z" />
<glyph unicode="&#xe90f;" glyph-name="arrow-button-up-2" d="M95.403 10.667c-11.307 0.213-22.101 3.157-31.488 8.576-14.805 8.533-25.387 22.357-29.824 38.869s-2.133 33.749 6.4 48.555l416.384 735.659c5.675 10.155 14.123 18.603 24.363 24.277 9.387 5.205 19.968 7.979 30.635 7.979 5.845 0 11.691-0.811 17.365-2.432 16.213-4.608 29.653-15.275 37.845-29.995l416.469-735.744c5.291-9.173 8.235-19.84 8.448-30.677 0.256-17.109-6.101-33.323-18.005-45.568-11.861-12.288-27.819-19.2-44.928-19.499-0.085 0-0.171 0-0.256 0h-833.408zM96.085 74.923l832.427-0.213-416.555 734.976-415.872-734.763z" />
<glyph unicode="&#xe910;" glyph-name="arrow-down-1" d="M512 128.043c-17.067 0-33.109 6.656-45.184 18.688l-457.429 457.387c-6.059 6.059-9.387 14.080-9.387 22.656 0 8.533 3.328 16.597 9.387 22.613 6.059 6.059 14.080 9.387 22.613 9.387s16.597-3.328 22.613-9.387l457.387-457.344 457.387 457.344c6.059 6.059 14.080 9.387 22.613 9.387s16.597-3.328 22.613-9.387c6.059-6.059 9.387-14.080 9.387-22.613s-3.328-16.597-9.387-22.613l-457.387-457.387c-12.032-12.075-28.117-18.731-45.227-18.731z" />
<glyph unicode="&#xe911;" glyph-name="arrow-left-1" d="M693.333-85.333c-8.533 0-16.597 3.328-22.613 9.387l-457.387 457.387c-12.075 12.075-18.731 28.117-18.731 45.184s6.613 33.152 18.688 45.227l457.429 457.429c6.016 6.059 14.080 9.387 22.613 9.387s16.597-3.328 22.613-9.387c6.059-6.016 9.387-14.080 9.387-22.613s-3.328-16.597-9.387-22.613l-457.387-457.387 457.387-457.387c6.059-6.059 9.387-14.080 9.387-22.613s-3.328-16.597-9.387-22.613-14.080-9.387-22.613-9.387z" />
<glyph unicode="&#xe912;" glyph-name="arrow-right-1" d="M234.624-85.333c-8.533 0-16.597 3.328-22.613 9.387-12.459 12.459-12.459 32.768 0 45.269l457.387 457.344-457.387 457.387c-6.059 6.016-9.387 14.080-9.387 22.613s3.328 16.597 9.387 22.613c6.016 6.059 14.080 9.387 22.613 9.387s16.597-3.328 22.613-9.387l457.387-457.387c24.917-24.917 24.96-65.493 0.043-90.411l-457.429-457.429c-6.016-6.059-14.080-9.387-22.613-9.387z" />
<glyph unicode="&#xe913;" glyph-name="arrow-up-1" d="M32 173.27c-8.533 0-16.597 3.328-22.613 9.387-12.459 12.459-12.459 32.768 0 45.269l457.387 457.301c12.075 12.117 28.117 18.773 45.184 18.773 17.109 0 33.152-6.656 45.227-18.688l457.429-457.387c12.459-12.459 12.459-32.768 0-45.269-6.059-6.059-14.080-9.387-22.613-9.387s-16.597 3.328-22.613 9.387l-457.387 457.344-457.387-457.344c-6.016-6.059-14.080-9.387-22.613-9.387z" />
<glyph unicode="&#xe914;" glyph-name="attachment" d="M320-68.437c-85.461 0-165.845 33.28-226.261 93.739s-93.739 140.757-93.739 226.261 33.28 165.845 93.739 226.261l384.683 384.64c41.259 42.709 97.024 66.901 156.843 67.968 1.664 0.043 3.413 0.043 5.12 0.043 57.557 0 112.384-22.357 154.368-62.891 42.965-41.515 67.2-97.323 68.267-157.227 1.024-59.904-21.248-116.523-62.763-159.488-1.835-1.877-3.669-3.755-5.547-5.547l-384.171-384.427c-24.32-23.509-56.021-36.352-89.472-36.352h-2.005c-34.219 0.597-66.133 14.464-89.899 39.040-48.171 49.835-48.171 127.957-0.043 177.835l385.067 385.195c6.059 6.059 14.080 9.387 22.613 9.387s16.555-3.328 22.613-9.344c12.501-12.501 12.501-32.811 0-45.269l-384.64-384.768c-23.765-24.619-23.68-63.573 0.384-88.533 11.861-12.288 27.819-19.2 44.928-19.499h1.365c16.512 0 32.171 6.4 44.203 18.005l384.256 384.469c1.749 1.664 3.029 2.944 4.267 4.267 61.312 63.488 59.563 164.992-3.883 226.261-29.995 28.971-69.461 44.928-111.104 44.928l-2.816-0.043c-42.709-0.725-82.603-18.091-112.299-48.811l-385.067-385.024c-48.384-48.427-75.008-112.683-75.008-181.077s26.624-132.651 74.965-181.035c48.256-48.256 112.555-74.837 181.035-74.837s132.736 26.581 181.035 74.837l468.352 468.395c6.059 6.059 14.080 9.387 22.613 9.387s16.597-3.328 22.613-9.387c6.059-6.016 9.387-14.080 9.387-22.613s-3.328-16.597-9.387-22.613l-468.352-468.395c-60.416-60.459-140.8-93.739-226.261-93.739z" />
<glyph unicode="&#xe915;" glyph-name="bathroom-shower-1" d="M919.595-85.333c-17.664 0-32 14.336-32 32v704c0 123.52-100.48 224-224 224-112.853 0-207.616-84.395-222.037-194.773 107.819-16.555 190.037-110.72 190.037-221.227 0-17.664-14.336-32-32-32h-384c-17.664 0-32 14.336-32 32 0 111.872 83.968 206.72 193.536 221.739 14.976 145.877 138.283 258.261 286.464 258.261 158.805 0 288-129.195 288-288v-704c0-17.664-14.336-32-32-32zM564.395 490.667c-15.019 73.045-80.725 128-156.757 128s-141.739-54.955-156.757-128h313.515zM455.595 282.667c0-26.51-21.49-48-48-48s-48 21.49-48 48c0 26.51 21.49 48 48 48s48-21.49 48-48zM455.595 26.667c0-26.51-21.49-48-48-48s-48 21.49-48 48c0 26.51 21.49 48 48 48s48-21.49 48-48zM583.637 234.667c-20.821 0-39.168 13.269-45.653 33.067-0.085 0.299-0.384 1.195-0.427 1.493-7.424 24.235 6.443 50.987 31.147 59.051 4.864 1.579 9.856 2.347 14.891 2.347 20.821 0 39.168-13.269 45.653-33.024 8.235-25.173-5.547-52.352-30.677-60.587-4.864-1.579-9.899-2.347-14.933-2.347zM662.955-8.746c-20.437 0-38.699 12.971-45.355 32.256-0.085 0.213-0.384 1.067-0.427 1.28-8.021 24.789 5.76 51.883 30.805 60.075 4.864 1.579 9.899 2.389 14.976 2.389 7.467 0 14.933-1.792 21.632-5.205 11.435-5.76 19.925-15.701 23.936-27.861 8.235-25.173-5.504-52.352-30.677-60.587-4.821-1.579-9.856-2.347-14.891-2.347zM231.509 234.667c-5.035 0-10.027 0.811-14.891 2.389-25.131 8.235-38.912 35.413-30.677 60.544 6.485 19.797 24.832 33.067 45.653 33.067 5.035 0 10.027-0.811 14.848-2.347 24.704-8.064 38.613-34.859 30.976-59.691-0.043-0.128-0.256-0.896-0.341-0.981-6.699-19.755-25.045-32.981-45.568-32.981zM152.32-8.789c-5.035 0-9.984 0.811-14.805 2.347-12.203 3.968-22.101 12.416-27.947 23.851s-6.869 24.448-2.901 36.651c6.443 19.84 24.789 33.152 45.696 33.152 4.693 0 9.387-0.683 13.909-2.048 0.128-0.043 0.939-0.299 1.067-0.341 24.832-8.107 38.656-35.072 30.72-60.032-6.485-20.224-24.875-33.579-45.739-33.579z" />
<glyph unicode="&#xe916;" glyph-name="building-cloudy" d="M160 682.667c-52.949 0-96 43.051-96 96s43.051 96 96 96c5.547-0.171 10.923-0.725 16.128-1.707 22.485 40.32 64.939 65.707 111.744 65.707 70.741 0 128.128-57.429 128.128-128s-57.429-128-128-128h-128zM159.317 810.667c-17.28-0.128-31.317-14.421-31.317-32 0-17.664 14.336-32 32-32h128c35.285 0 64 28.715 64 64 0 35.243-28.629 63.915-63.829 64-0.085 0-0.256 0-0.299 0-29.824 0-56.064-21.12-62.464-50.261-2.304-10.496-9.685-19.072-19.712-22.955-3.669-1.451-7.552-2.176-11.563-2.176-6.656 0-13.056 2.005-18.475 5.845-4.821 3.413-10.453 5.333-16.341 5.547zM565.333-85.333c-29.397 0-53.333 23.936-53.333 53.333v896c0 41.173 33.493 74.667 74.667 74.667h362.667c41.173 0 74.667-33.493 74.667-74.667v-896c0-29.397-23.936-53.333-53.333-53.333h-405.333zM960-21.333v885.333c0 5.888-4.779 10.667-10.667 10.667h-362.667c-5.888 0-10.667-4.779-10.667-10.667v-885.333h384zM672 714.667c-17.664 0-32 14.336-32 32v32c0 17.664 14.336 32 32 32s32-14.336 32-32v-32c0-17.664-14.336-32-32-32zM864 714.667c-17.664 0-32 14.336-32 32v32c0 17.664 14.336 32 32 32s32-14.336 32-32v-32c0-17.664-14.336-32-32-32zM672 554.667c-17.664 0-32 14.336-32 32v32c0 17.664 14.336 32 32 32s32-14.336 32-32v-32c0-17.664-14.336-32-32-32zM864 554.667c-17.664 0-32 14.336-32 32v32c0 17.664 14.336 32 32 32s32-14.336 32-32v-32c0-17.664-14.336-32-32-32zM672 394.667c-17.664 0-32 14.336-32 32v32c0 17.664 14.336 32 32 32s32-14.336 32-32v-32c0-17.664-14.336-32-32-32zM864 394.667c-17.664 0-32 14.336-32 32v32c0 17.664 14.336 32 32 32s32-14.336 32-32v-32c0-17.664-14.336-32-32-32zM672 234.667c-17.664 0-32 14.336-32 32v32c0 17.664 14.336 32 32 32s32-14.336 32-32v-32c0-17.664-14.336-32-32-32zM864 234.667c-17.664 0-32 14.336-32 32v32c0 17.664 14.336 32 32 32s32-14.336 32-32v-32c0-17.664-14.336-32-32-32zM672 74.667c-17.664 0-32 14.336-32 32v32c0 17.664 14.336 32 32 32s32-14.336 32-32v-32c0-17.664-14.336-32-32-32zM864 74.667c-17.664 0-32 14.336-32 32v32c0 17.664 14.336 32 32 32s32-14.336 32-32v-32c0-17.664-14.336-32-32-32zM53.333-85.333c-29.397 0-53.333 23.936-53.333 53.333v512c0 41.173 33.493 74.667 74.667 74.667h298.667c41.173 0 74.667-33.493 74.667-74.667v-512c0-29.397-23.936-53.333-53.333-53.333h-341.333zM384-21.333v384h-320v-384h320zM384 426.667v53.333c0 5.888-4.779 10.667-10.667 10.667h-298.667c-5.888 0-10.667-4.779-10.667-10.667v-53.333h320zM160 202.667c-17.664 0-32 14.336-32 32v32c0 17.664 14.336 32 32 32s32-14.336 32-32v-32c0-17.664-14.336-32-32-32zM288 202.667c-17.664 0-32 14.336-32 32v32c0 17.664 14.336 32 32 32s32-14.336 32-32v-32c0-17.664-14.336-32-32-32zM160 42.667c-17.664 0-32 14.336-32 32v32c0 17.664 14.336 32 32 32s32-14.336 32-32v-32c0-17.664-14.336-32-32-32zM288 42.667c-17.664 0-32 14.336-32 32v32c0 17.664 14.336 32 32 32s32-14.336 32-32v-32c0-17.664-14.336-32-32-32z" />
<glyph unicode="&#xe917;" glyph-name="calendar-3" d="M96-85.333c-52.949 0-96 43.051-96 96v704c0 52.949 43.051 96 96 96h160v96c0 17.664 14.336 32 32 32s32-14.336 32-32v-96h384v96c0 17.664 14.336 32 32 32s32-14.336 32-32v-96h160c52.949 0 96-43.051 96-96v-704c0-52.949-43.051-96-96-96h-832zM64 10.667c0-17.664 14.336-32 32-32h832c17.664 0 32 14.336 32 32v480h-896v-480zM960 554.667v160c0 17.664-14.336 32-32 32h-160v-64c0-17.664-14.336-32-32-32s-32 14.336-32 32v64h-384v-64c0-17.664-14.336-32-32-32s-32 14.336-32 32v64h-160c-17.664 0-32-14.336-32-32v-160h896zM288 346.667c0-26.51-21.49-48-48-48s-48 21.49-48 48c0 26.51 21.49 48 48 48s48-21.49 48-48zM288 122.667c0-26.51-21.49-48-48-48s-48 21.49-48 48c0 26.51 21.49 48 48 48s48-21.49 48-48zM560 346.667c0-26.51-21.49-48-48-48s-48 21.49-48 48c0 26.51 21.49 48 48 48s48-21.49 48-48zM560 122.667c0-26.51-21.49-48-48-48s-48 21.49-48 48c0 26.51 21.49 48 48 48s48-21.49 48-48zM832 346.667c0-26.51-21.49-48-48-48s-48 21.49-48 48c0 26.51 21.49 48 48 48s48-21.49 48-48zM784 74.667c-26.453 0-48 21.547-48 48s21.547 48 48 48c0.597 0 1.28-0.043 1.963-0.128 0.427-0.043 0.811-0.085 1.152-0.128 24.875-1.237 44.885-22.229 44.885-47.787 0-26.411-21.547-47.957-48-47.957z" />
<glyph unicode="&#xe918;" glyph-name="camera-1" d="M608 138.667c-141.141 0-256 114.859-256 256s114.859 256 256 256 256-114.859 256-256-114.859-256-256-256zM608 586.667c-105.856 0-192-86.144-192-192s86.144-192 192-192c105.856 0 192 86.144 192 192s-86.144 192-192 192zM96 10.667c-52.949 0-96 43.051-96 96v512c0 52.949 43.051 96 96 96h96v32c0 17.664 14.336 32 32 32s32-14.336 32-32v-32h108.203l37.461 74.923c16.384 32.725 49.28 53.077 85.888 53.077h240.896c36.608 0 69.504-20.309 85.888-53.077l37.461-74.923h76.203c52.949 0 96-43.051 96-96v-512c0-52.949-43.051-96-96-96h-832zM96 650.667c-17.664 0-32-14.336-32-32v-512c0-17.664 14.336-32 32-32h832c17.664 0 32 14.336 32 32v512c0 17.664-14.336 32-32 32h-96c-12.203 0-23.168 6.784-28.629 17.707l-46.293 92.629c-5.461 10.88-16.427 17.664-28.629 17.664h-240.896c-12.203 0-23.168-6.784-28.629-17.707l-46.293-92.587c-5.461-10.923-16.427-17.707-28.629-17.707h-288zM224 538.667c0-26.51-21.49-48-48-48s-48 21.49-48 48c0 26.51 21.49 48 48 48s48-21.49 48-48z" />
<glyph unicode="&#xe919;" glyph-name="car-1" d="M864 53.334c-52.949 0-96 43.051-96 96v32h-512v-32c0-52.949-43.051-96-96-96s-96 43.051-96 96v37.504c-37.76 13.355-64 49.536-64 90.496v96.043c0 15.275 3.157 30.123 9.387 44.203 0.171 0.427 0.683 1.536 1.237 2.603 5.077 10.965 12.416 21.461 21.333 30.421l82.773 82.773-32 32h-50.731c-17.664-0.043-32 14.293-32 31.957s14.336 32 32 32h64c8.533 0 16.597-3.328 22.613-9.387l28.843-28.843 55.083 147.157c18.645 49.707 66.816 83.072 119.851 83.072h379.093c53.035 0 101.205-33.365 119.808-83.072l55.125-147.243 28.971 28.928c5.973 5.973 14.208 9.387 22.613 9.387h64c17.664 0 32-14.336 32-32s-14.336-32-32-32h-50.731l-32-32 82.773-82.773c8.96-8.96 16.299-19.499 21.76-31.232 0.384-0.768 0.768-1.579 1.109-2.432 5.931-13.312 9.088-28.203 9.088-43.52v-96.043c0-40.96-26.24-77.141-64-90.496v-37.504c0-52.949-43.051-96-96-96zM832 149.334c0-17.664 14.336-32 32-32s32 14.336 32 32v32h-64v-32zM128 149.334c0-17.664 14.336-32 32-32s32 14.336 32 32v32h-64v-32zM64 277.334c0-17.664 14.336-32 32-32h832c17.664 0 32 14.336 32 32v96h-133.504c-8.533 0-16.555-3.328-22.613-9.344l-45.269-45.269c-6.059-6.059-14.080-9.387-22.613-9.387s-16.597 3.328-22.613 9.387-9.387 14.080-9.387 22.613 3.328 16.597 9.387 22.613l45.269 45.269c18.133 18.133 42.24 28.117 67.84 28.117h88.235l-64 64h-677.461l-64-64h88.235c25.643 0 49.749-9.984 67.84-28.117l45.269-45.269c6.059-6.016 9.387-14.080 9.387-22.613s-3.328-16.597-9.387-22.613c-6.059-6.059-14.080-9.387-22.613-9.387s-16.597 3.328-22.613 9.387l-45.269 45.269c-5.931 5.931-14.165 9.344-22.613 9.344h-133.504v-96zM817.749 565.334l-56.363 150.485c-9.301 24.832-33.365 41.515-59.904 41.515h-379.051c-26.539 0-50.603-16.683-59.904-41.515l-56.363-150.485h611.584z" />
<glyph unicode="&#xe91a;" glyph-name="check-circle-1" d="M397.867 174.251c-4.992 0-10.027 0.512-15.019 1.493-20.139 4.011-37.504 15.573-48.896 32.597l-104.107 147.712c-10.155 14.421-6.699 34.432 7.723 44.587 5.419 3.84 11.776 5.845 18.432 5.845 10.411 0 20.181-5.077 26.197-13.568l104.533-148.352c2.304-3.456 5.12-5.376 8.576-6.059 0.853-0.171 1.707-0.256 2.56-0.256 2.475 0 4.907 0.768 6.997 2.176 1.195 0.811 2.219 1.792 3.072 2.901l335.019 423.893c6.059 7.68 15.189 12.117 25.045 12.117 7.168 0 14.208-2.432 19.797-6.869 6.699-5.291 10.965-12.885 11.947-21.376s-1.365-16.853-6.656-23.552l-334.635-423.381c-4.821-6.357-10.965-12.117-18.048-16.896-12.672-8.533-27.392-13.013-42.539-13.013zM512-85.29c-282.325 0-512 229.675-512 512s229.675 512 512 512c282.325 0 512-229.675 512-512s-229.675-512-512-512zM512 874.71c-247.040 0-448-200.96-448-448s200.96-448 448-448c247.040 0 448 200.96 448 448s-200.96 448-448 448z" />
<glyph unicode="&#xe91b;" glyph-name="cog" d="M347.989-84.821c-28.843 0-56.448 10.667-77.739 30.037-25.515 23.211-39.253 56.32-37.675 90.795l3.072 59.904c1.451 28.373-20.437 52.651-48.811 54.144-0.896 0.043-1.792 0.085-2.645 0.085-0.896 0-1.749 0-2.645-0.085l-59.776-3.029c-2.005-0.085-4.096-0.171-6.144-0.171-28.501 0-55.936 10.539-77.184 29.696-22.912 20.651-36.437 48.981-38.059 79.829-1.835 34.859 11.989 68.267 37.845 91.691l44.459 40.107c10.197 9.216 16.213 21.888 16.939 35.669 0.683 13.781-4.011 27.008-13.227 37.248-1.152 1.28-2.389 2.517-3.712 3.712l-44.459 40.363c-22.869 20.736-36.267 49.109-37.76 79.957-1.536 30.805 9.088 60.373 29.824 83.243 21.845 24.107 52.992 37.931 85.419 37.931 1.877 0 3.797-0.043 5.675-0.128l59.819-3.029c0.896-0.085 2.688-0.085 2.688-0.085 27.477 0 50.091 21.461 51.541 48.811 0.085 1.792 0.085 3.627 0 5.419l-2.859 59.989c-2.987 63.701 46.379 117.931 110.037 120.917 1.835 0.085 3.669 0.128 5.504 0.128 32.427 0 63.531-13.781 85.376-37.803l40.149-44.331c9.259-10.283 21.888-16.299 35.627-17.024 0.939-0.043 1.877-0.085 2.816-0.085 12.843 0 24.704 4.565 34.347 13.227 1.323 1.195 2.56 2.432 3.712 3.755l40.533 44.459c20.608 22.827 48.981 36.267 79.829 37.845 1.963 0.085 3.883 0.128 5.803 0.128 28.715 0 56.277-10.581 77.568-29.824 25.899-23.381 39.723-56.789 37.931-91.648l-3.029-59.733c-1.408-28.373 20.523-52.608 48.896-54.059 0.896-0.043 1.749-0.085 2.603-0.085 0.811 0 1.621 0 2.432 0.043l59.733 3.029c2.005 0.085 3.925 0.128 5.888 0.128 28.672 0 56.149-10.624 77.44-29.952 22.869-20.736 36.309-49.152 37.845-79.957 1.707-34.773-12.117-68.096-37.931-91.435l-44.459-40.107c-10.197-9.216-16.213-21.888-16.896-35.669-0.725-13.781 4.011-27.008 13.227-37.205 1.195-1.323 2.389-2.56 3.669-3.669l44.459-40.149c22.912-20.693 36.395-49.067 37.973-79.915s-8.96-60.459-29.653-83.328c-21.888-24.192-53.205-38.059-85.973-38.059 0 0 0 0 0 0-1.835 0-3.712 0.043-5.589 0.128l-59.819 3.029c-0.939 0.043-1.877 0.085-2.816 0.085-12.885 0-24.747-4.608-34.389-13.269-10.24-9.216-16.256-21.845-16.939-35.627-0.085-1.749-0.085-3.541 0-5.333l3.029-59.733c1.365-30.933-9.344-60.501-30.208-83.328s-49.323-36.139-80.128-37.504c-1.835-0.085-3.755-0.128-5.675-0.128-32 0-62.891 13.696-84.736 37.547l-40.277 44.544c-9.771 10.795-23.723 16.981-38.357 16.981-12.8 0-25.045-4.693-34.517-13.269-1.28-1.152-2.56-2.389-3.712-3.712l-40.363-44.459c-21.845-23.936-53.035-37.675-85.547-37.675zM184.192 214.102c1.963 0 3.925-0.043 5.888-0.171 63.659-3.285 112.768-57.728 109.483-121.344l-3.072-59.733c-0.683-15.232 5.419-29.995 16.811-40.363 9.643-8.789 21.632-13.397 34.645-13.397 0.853 0 1.664 0 2.517 0.043 13.739 0.64 26.453 6.613 35.712 16.811l40.277 44.373c2.56 2.859 5.333 5.632 8.235 8.277 21.291 19.2 48.768 29.781 77.44 29.781 32.683 0 63.957-13.867 85.845-38.059l40.149-44.416c9.643-10.539 23.552-16.597 38.229-16.597l2.091 0.043c28.331 1.28 50.432 25.429 49.152 53.845l-3.029 59.52c-0.213 3.925-0.213 7.893 0 11.861 1.579 30.805 15.061 59.179 37.973 79.829 21.291 19.2 48.683 29.781 77.184 29.781 2.048 0 4.096-0.043 6.187-0.171l59.691-3.029c1.024-0.043 2.005-0.085 2.944-0.085 14.336 0 28.16 6.187 37.931 17.024 9.259 10.24 13.952 23.467 13.269 37.205-0.683 13.781-6.699 26.411-16.939 35.669l-44.459 40.107c-2.901 2.603-5.675 5.376-8.32 8.32-42.709 47.275-38.997 120.533 8.32 163.285l44.459 40.107c11.52 10.411 17.664 25.259 16.896 40.789-0.683 13.781-6.656 26.453-16.896 35.712-9.515 8.619-21.76 13.355-34.517 13.355-0.896 0-1.749-0.043-2.645-0.085l-59.691-3.029c-1.877-0.085-3.797-0.128-5.675-0.128-1.963 0-3.925 0.043-5.845 0.171-63.616 3.2-112.768 57.557-109.568 121.173l3.029 59.776c0.811 15.573-5.376 30.464-16.939 40.875-9.643 8.747-21.461 13.312-34.219 13.312-0.939 0-1.92-0.043-2.901-0.085-13.824-0.683-26.496-6.699-35.712-16.939l-40.448-44.373c-2.517-2.816-5.376-5.675-8.363-8.363-21.248-19.157-48.725-29.696-77.397-29.696-1.963 0-3.925 0.043-5.888 0.128-30.848 1.621-59.179 15.104-79.829 38.016l-40.064 44.288c-9.728 10.667-23.637 16.811-38.144 16.811-0.811 0-1.621 0-2.432-0.043-28.373-1.323-50.389-25.557-49.067-53.973l2.859-59.733c0.213-3.883 0.213-7.979 0-12.075-3.243-61.355-53.931-109.44-115.413-109.44-2.005 0-4.011 0.043-6.016 0.171l-59.691 2.987c-0.768 0.043-1.621 0.085-2.432 0.085-14.464 0-28.373-6.187-38.101-16.896-9.259-10.197-13.995-23.381-13.312-37.12s6.656-26.411 16.853-35.669l44.416-40.32c2.859-2.603 5.632-5.333 8.235-8.277 42.709-47.317 38.997-120.576-8.32-163.285l-44.416-40.107c-11.52-10.411-17.664-25.344-16.853-40.875 0.725-13.739 6.741-26.411 16.981-35.627 9.472-8.533 21.717-13.227 34.432-13.227 0.896 0 1.835 0 2.731 0.085l59.776 3.029c2.005 0.043 3.968 0.085 5.973 0.085zM512 202.667c-123.52 0-224 100.48-224 224s100.48 224 224 224 224-100.48 224-224-100.48-224-224-224zM512 586.667c-88.235 0-160-71.765-160-160s71.765-160 160-160 160 71.765 160 160-71.765 160-160 160z" />
<glyph unicode="&#xe91c;" glyph-name="email-action-reply" d="M990.379-85.333c-17.664 0-32 14.336-32 32 0 158.805-129.195 288-288 288h-224v-92.288c-0.043-26.624-11.221-52.267-30.763-70.315-17.792-16.469-40.917-25.557-65.237-25.557-26.667 0-52.352 11.179-70.443 30.677l-232.917 252.373c-33.664 36.523-33.664 93.696 0 130.176l233.045 252.373c18.133 19.541 43.776 30.72 70.357 30.763 25.728 0 49.792-9.941 67.925-28.032s28.16-42.197 28.203-67.84l-0.128-92.331h223.957c194.091 0 352-157.909 352-352v-256c0-17.664-14.336-32-32-32zM350.507 678.87c-8.917 0-17.451-3.755-23.467-10.24l-232.96-252.288c-11.221-12.16-11.221-31.232 0-43.392l232.875-252.331c6.059-6.571 14.421-10.155 23.424-10.155 8.107 0 15.829 3.029 21.717 8.491 6.485 6.016 10.24 14.592 10.24 23.424v124.288c0 17.664 14.336 32 32 32h256c115.115 0 222.677-57.301 288-149.845v53.845c0 158.805-129.195 288-288 288h-256c-8.576 0-16.597 3.328-22.656 9.387s-9.387 14.080-9.344 22.656l0.128 124.245c0 8.491-3.328 16.512-9.387 22.571-6.016 6.016-14.037 9.344-22.571 9.344z" />
<glyph unicode="&#xe91d;" glyph-name="envelope" d="M96 74.667c-52.949 0-96 43.051-96 96v512c0 22.912 8.32 45.184 23.381 62.635 0.555 0.683 1.323 1.579 2.176 2.389 18.176 19.669 43.819 30.976 70.443 30.976h832c26.667 0 52.309-11.307 70.485-31.019 0.768-0.768 1.493-1.579 2.176-2.432 14.976-17.237 23.339-39.552 23.339-62.549v-512c0-52.949-43.051-96-96-96h-832zM64 170.667c0-17.664 14.336-32 32-32h832c17.664 0 32 14.336 32 32v504.021l-239.616-165.248 133.333-123.264c12.971-11.989 13.739-32.256 1.792-45.227-6.059-6.528-14.635-10.283-23.509-10.283-8.064 0-15.787 3.029-21.717 8.491l-143.915 133.035-77.867-53.717c-22.443-15.531-48.896-23.723-76.501-23.723-27.563 0-54.016 8.192-76.501 23.723l-77.867 53.675-143.915-133.035c-5.931-5.419-13.653-8.448-21.717-8.448-8.875 0-17.451 3.755-23.509 10.24-11.989 12.971-11.179 33.28 1.749 45.227l133.333 123.264-239.573 165.291v-504.021zM471.851 471.168c11.776-8.149 25.643-12.416 40.149-12.416s28.373 4.309 40.149 12.416l353.109 243.499h-786.517l353.109-243.499z" />
<glyph unicode="&#xe91e;" glyph-name="expand-3" d="M32-85.248c-3.755 0-7.467 0.683-11.093 2.005-0.341 0.128-0.64 0.213-0.939 0.341-8.021 3.285-14.336 9.643-17.579 17.493-0.128 0.299-0.256 0.64-0.384 0.981-1.28 3.499-2.005 7.296-2.005 11.179v288c0 17.664 14.336 32 32 32s32-14.336 32-32v-210.731l329.387 329.387c6.059 6.059 14.080 9.387 22.613 9.387s16.597-3.328 22.613-9.387c6.059-6.059 9.387-14.080 9.387-22.613s-3.328-16.597-9.387-22.613l-329.387-329.387h210.773c17.664 0 32-14.336 32-32s-14.336-32-32-32h-288zM608 490.752c-8.533 0-16.597 3.328-22.613 9.387-6.059 6.016-9.387 14.080-9.387 22.613s3.328 16.597 9.387 22.613l329.387 329.387h-210.773c-17.664 0-32 14.336-32 32s14.336 32 32 32h288c3.797 0 7.509-0.683 11.136-2.048 0.469-0.171 0.939-0.341 1.365-0.512 7.509-3.072 13.824-9.429 17.067-17.237 0.128-0.341 0.299-0.725 0.427-1.109 1.323-3.499 2.005-7.296 2.005-11.093v-288c0-17.664-14.336-32-32-32s-32 14.336-32 32v210.731l-329.387-329.387c-6.016-6.016-14.080-9.344-22.613-9.344z" />
<glyph unicode="&#xe91f;" glyph-name="hotel-double-bed-1" d="M992 10.667c-17.664 0-32 14.336-32 32v96h-896v-96c0-17.664-14.336-32-32-32s-32 14.336-32 32v330.667c0 57.216 41.088 105.216 96 115.285v258.048c0 52.949 43.051 96 96 96h640c52.949 0 96-43.051 96-96v-258.048c54.912-10.069 96-58.069 96-115.285v-330.667c0-17.664-14.336-32-32-32zM960 202.667v170.667c0 29.397-23.936 53.333-53.333 53.333h-789.333c-29.397 0-53.333-23.936-53.333-53.333v-170.667h896zM864 490.667v64c0 17.664-14.336 32-32 32h-256c-17.664 0-32-14.336-32-32v-64h320zM480 490.667v64c0 17.664-14.336 32-32 32h-256c-17.664 0-32-14.336-32-32v-64h320zM448 650.667c24.021 0 46.549-8.789 64-24.533 17.451 15.787 39.979 24.533 64 24.533h256c11.051 0 21.803-1.877 32-5.504v101.504c0 17.664-14.336 32-32 32h-640c-17.664 0-32-14.336-32-32v-101.504c10.197 3.627 20.949 5.504 32 5.504h256z" />
<glyph unicode="&#xe920;" glyph-name="floppy-disk" d="M96-85.333c-52.949 0-96 43.051-96 96v618.965c0 42.752 16.64 82.901 46.891 113.109l148.949 149.035c30.251 30.251 70.443 46.891 113.195 46.891h618.965c52.949 0 96-43.051 96-96v-832c0-52.949-43.051-96-96-96h-832zM928-21.333c17.664 0 32 14.336 32 32v832c0 17.664-14.336 32-32 32h-96v-224c0-52.949-43.051-96-96-96h-320c-52.949 0-96 43.051-96 96v224h-10.965c-25.643 0-49.792-9.984-67.925-28.117l-148.949-149.035c-18.176-18.133-28.16-42.24-28.16-67.883v-618.965c0-17.664 14.336-32 32-32h96v352c0 52.949 43.051 96 96 96h448c52.949 0 96-43.051 96-96v-352h96zM768-21.333v352c0 17.664-14.336 32-32 32h-448c-17.664 0-32-14.336-32-32v-352h512zM384 650.667c0-17.664 14.336-32 32-32h320c17.664 0 32 14.336 32 32v224h-384v-224zM672 682.667c-17.664 0-32 14.336-32 32v64c0 17.664 14.336 32 32 32s32-14.336 32-32v-64c0-17.664-14.336-32-32-32zM352 234.667c-17.664 0-32 14.336-32 32s14.336 32 32 32h192c17.664 0 32-14.336 32-32s-14.336-32-32-32h-192zM352 106.667c-17.664 0-32 14.336-32 32s14.336 32 32 32h320c17.664 0 32-14.336 32-32s-14.336-32-32-32h-320z" />
<glyph unicode="&#xe921;" glyph-name="hyperlink-3" d="M224.128 21.462c-59.904 0-116.139 23.253-158.379 65.493s-65.493 98.475-65.493 158.379c0 59.904 23.253 116.139 65.493 158.379l203.648 203.691c42.24 42.325 98.56 65.664 158.549 65.664 59.819 0 116.011-23.211 158.208-65.323 78.592-78.421 88.235-200.533 22.955-290.304-5.973-8.235-15.659-13.184-25.899-13.184-6.827 0-13.312 2.133-18.816 6.144-6.869 4.992-11.435 12.416-12.757 20.864s0.683 16.896 5.717 23.808c46.635 64.128 39.765 151.339-16.384 207.36-30.165 30.080-70.272 46.677-113.024 46.677-42.88 0-83.072-16.683-113.28-46.891l-203.691-203.691c-62.379-62.379-62.379-163.883 0-226.261 30.165-30.165 70.357-46.763 113.152-46.763s82.987 16.597 113.152 46.763l39.765 39.765c6.059 6.059 14.080 9.387 22.613 9.387s16.597-3.328 22.613-9.387c6.059-6.059 9.387-14.080 9.387-22.613s-3.328-16.597-9.387-22.613l-39.765-39.765c-42.197-42.325-98.475-65.579-158.379-65.579zM596.395 169.643c-59.776 0-115.968 23.253-158.251 65.493-78.549 78.421-88.192 200.491-22.869 290.261 5.973 8.235 15.659 13.184 25.856 13.184 6.784 0 13.312-2.133 18.816-6.101 6.912-5.035 11.477-12.459 12.8-20.907s-0.683-16.896-5.717-23.808c-46.635-64.128-39.765-151.296 16.341-207.317 30.208-30.165 70.357-46.763 113.067-46.763 42.88 0.043 83.029 16.683 113.237 46.933l203.648 203.648c30.208 30.208 46.848 70.4 46.848 113.152s-16.64 82.901-46.848 113.152c-30.165 30.165-70.357 46.763-113.152 46.763s-82.987-16.597-113.152-46.763l-32-32c-6.059-6.059-14.080-9.387-22.613-9.387s-16.597 3.328-22.613 9.387c-6.059 6.016-9.387 14.080-9.387 22.613s3.328 16.597 9.387 22.613l32 32c42.24 42.24 98.517 65.536 158.379 65.536s116.139-23.253 158.379-65.536c42.325-42.283 65.621-98.56 65.621-158.379s-23.296-116.096-65.621-158.379l-203.648-203.648c-42.24-42.325-98.475-65.664-158.336-65.707h-0.171z" />
<glyph unicode="&#xe922;" glyph-name="layout-dashboard" d="M73.6 330.411c-19.712 0.043-38.229 7.723-52.139 21.675-13.867 13.952-21.504 32.469-21.461 52.181v460.331c-0.043 19.627 7.595 38.187 21.504 52.096 13.909 13.952 32.384 21.675 52.096 21.717l332.928-0.555c40.576-0.171 73.557-33.323 73.472-73.856v-459.733c0.085-40.576-32.896-73.728-73.515-73.856 0 0-0.043 0-0.043 0h-332.843zM73.643 874.411c-2.603 0-4.949-0.981-6.784-2.859-1.877-1.877-2.859-4.267-2.859-6.869v-460.459c0-2.688 0.981-5.12 2.816-6.955 1.877-1.877 4.224-2.859 6.827-2.859h332.757c5.291 0 9.6 4.395 9.6 9.771v459.861c0 5.419-4.352 9.771-9.685 9.813l-332.672 0.555zM617.429 586.411c-19.712 0-37.931 7.509-51.755 21.077-13.952 13.739-21.717 32.085-21.845 51.669v205.653c0.256 40.32 33.109 73.045 73.259 73.045l332.971 0.555c40.533 0 73.429-32.64 73.771-72.789v-206.165c-0.299-40.363-33.195-73.045-73.344-73.045h-333.056zM617.216 873.856c-5.163 0-9.344-4.139-9.387-9.216v-205.184c0-2.304 0.981-4.608 2.773-6.357 2.219-2.176 4.907-2.645 6.784-2.688h332.843c5.333 0 9.557 4.139 9.6 9.259v205.696c-0.043 4.907-4.267 9.045-9.387 9.045 0 0-333.184-0.555-333.227-0.555zM73.472-85.034c-40.405 0-73.259 32.725-73.472 72.96v205.355c0.213 40.363 33.109 73.131 73.344 73.131h333.056c40.448 0 73.344-32.725 73.6-72.96v-205.867c-0.128-19.797-7.851-38.187-21.803-52.011-13.824-13.653-32.171-21.163-51.584-21.163l-333.141 0.555zM72.789 202.411c-4.736 0-8.747-4.267-8.789-9.301v-205.013c0.043-4.992 4.224-9.131 9.344-9.131 0 0 333.099-0.555 333.099-0.555 2.688 0 4.48 0.469 6.741 2.731 1.835 1.792 2.816 4.096 2.816 6.613v205.525c-0.043 4.992-4.224 9.131-9.387 9.131h-333.824zM617.429-85.589c-19.712 0.043-38.229 7.765-52.139 21.717-13.867 13.952-21.504 32.469-21.461 52.181v460.245c-0.043 19.584 7.552 38.101 21.461 52.096s32.384 21.717 52.053 21.76h332.885c19.755-0.043 38.272-7.765 52.181-21.76 13.909-13.952 21.504-32.512 21.419-52.224v-459.648c0.085-40.491-32.853-73.643-73.387-73.856l-332.885-0.555c-0.043 0.043-0.128 0.043-0.128 0.043zM617.472 458.411c-5.333-0.043-9.643-4.395-9.643-9.771v-460.373c0-2.731 0.981-5.12 2.816-6.997 1.877-1.877 4.224-2.859 6.869-2.859l332.672 0.555c5.291 0.043 9.643 4.437 9.643 9.813v459.776c0 2.731-0.981 5.12-2.816 6.997s-4.224 2.859-6.869 2.859h-332.672z" />
<glyph unicode="&#xe923;" glyph-name="location-target" d="M512 266.667c-88.235 0-160 71.765-160 160s71.765 160 160 160c88.235 0 160-71.765 160-160s-71.765-160-160-160zM512 522.667c-52.949 0-96-43.051-96-96s43.051-96 96-96c52.949 0 96 43.051 96 96s-43.051 96-96 96zM512-85.333c-17.664 0-32 14.336-32 32v129.451c-169.941 15.189-303.317 148.565-318.549 318.549h-129.451c-17.664 0-32 14.336-32 32s14.336 32 32 32h129.451c15.232 169.941 148.608 303.317 318.549 318.549v129.451c0 17.664 14.336 32 32 32s32-14.336 32-32v-129.451c169.941-15.232 303.317-148.608 318.549-318.549h129.451c17.664 0 32-14.336 32-32s-14.336-32-32-32h-129.451c-15.189-169.941-148.565-303.317-318.549-318.549v-129.451c0-17.664-14.336-32-32-32zM512 714.667c-158.805 0-288-129.195-288-288s129.195-288 288-288 288 129.195 288 288-129.195 288-288 288z" />
<glyph unicode="&#xe924;" glyph-name="location-user" d="M512-85.546c-287.104 0-512 112.555-512 256.213 0 85.376 77.525 161.621 212.736 209.152 3.456 1.195 6.997 1.792 10.624 1.792 13.568 0 25.685-8.576 30.208-21.376 2.816-8.064 2.347-16.768-1.323-24.448-3.712-7.723-10.197-13.525-18.261-16.341-104.875-36.864-169.984-93.867-169.984-148.779 0-102.4 209.323-192.213 448-192.213s448 89.728 448 192c0 55.168-65.579 112.341-171.136 149.205-8.064 2.816-14.549 8.619-18.261 16.299-3.712 7.723-4.224 16.384-1.365 24.448 4.48 12.843 16.64 21.461 30.208 21.461 3.584 0 7.168-0.597 10.581-1.792 135.936-47.531 213.973-123.904 213.973-209.621 0-143.573-224.896-256-512-256zM512 650.667c-79.403 0-144 64.597-144 144s64.597 144 144 144c79.403 0 144-64.597 144-144s-64.597-144-144-144zM512 874.667c-44.117 0-80-35.883-80-80s35.883-80 80-80 80 35.883 80 80-35.883 80-80 80zM448 106.667c-16.085 0-29.739 12.032-31.744 28.032l-28.501 227.968h-35.755c-17.664 0-32 14.336-32 32v96c0 105.856 86.144 192 192 192s192-86.144 192-192v-95.787c0-17.579-14.293-31.957-31.915-32l-35.84-0.128-28.501-228.053c-2.005-16-15.659-28.032-31.744-28.032h-128zM547.755 170.667l28.501 227.968c2.005 15.915 15.573 27.947 31.616 28.032l32.128 0.085v63.915c0 70.571-57.429 128-128 128s-128-57.429-128-128v-64h32c16.085 0 29.739-12.032 31.744-28.032l28.501-227.968h71.509z" />
<glyph unicode="&#xe925;" glyph-name="lock-5" d="M512-85.333c-211.755 0-384 172.245-384 384 0 109.099 46.549 212.864 128 285.867v98.133c0 141.141 114.859 256 256 256s256-114.859 256-256v-98.133c81.451-73.003 128-176.725 128-285.867 0-211.755-172.245-384-384-384zM512 618.667c-176.427 0-320-143.573-320-320s143.573-320 320-320 320 143.573 320 320-143.573 320-320 320zM512 682.667c67.925 0 133.717-17.749 192-51.584v51.584c0 105.856-86.144 192-192 192s-192-86.144-192-192v-51.584c58.283 33.835 124.075 51.584 192 51.584zM512 170.667c-70.571 0-128 57.429-128 128s57.429 128 128 128c70.571 0 128-57.429 128-128s-57.429-128-128-128zM512 362.667c-35.285 0-64-28.715-64-64s28.715-64 64-64 64 28.715 64 64-28.715 64-64 64z" />
<glyph unicode="&#xe926;" glyph-name="earth-1" d="M511.829-85.333c-116.565 0-226.517 38.443-317.995 111.147-0.256 0.171-0.512 0.341-0.725 0.512l-1.323 1.067c-3.669 2.944-6.912 5.632-10.155 8.363-3.029 2.56-6.059 5.205-9.088 7.851 0 0-4.821 4.224-6.101 5.376-5.547 5.035-10.965 10.24-16.256 15.488 0 0-0.768 0.768-0.768 0.768-109.355 109.141-162.944 259.925-146.987 413.653 0 0.085 0.043 0.213 0.043 0.299 0.768 7.424 1.749 14.848 2.859 22.315l0.811 5.333c1.195 7.424 2.475 14.848 3.968 22.229 0.043 0.171 0.085 0.341 0.128 0.555 48.597 237.056 259.456 409.045 501.589 409.045 282.325 0 512-229.675 512-512 0-46.208-6.315-92.331-18.773-137.131l-0.384-1.365c-4.48-15.829-9.557-31.019-15.189-45.611-1.152-2.987-2.347-5.973-3.541-8.96-1.408-3.499-2.859-6.955-4.352-10.368-1.792-4.096-3.669-8.192-5.547-12.245 0 0-3.072-6.613-4.267-9.045-2.347-4.821-4.779-9.643-7.296-14.421-0.213-0.427-0.469-0.853-0.768-1.28-89.173-167.339-262.4-271.573-451.883-271.573zM248.107 64.811c77.099-56.405 168.064-86.144 263.723-86.144 148.096 0 283.392 71.211 367.403 191.872h-25.173c-47.147 0-86.955 33.749-94.72 80.171l-29.269 175.957h-40.277c-7.851 0-15.701 0.981-23.296 2.859-51.328 12.843-82.688 65.067-69.803 116.437l32 128c10.667 42.795 48.939 72.704 93.099 72.704h103.083c-83.541 81.749-195.712 128-313.045 128-199.296 0-372.949-130.56-429.312-320h187.349c44.117 0 82.432-29.909 93.141-72.704l32-128c1.92-7.595 2.859-15.445 2.859-23.296 0-25.643-9.984-49.749-28.117-67.883s-42.24-28.117-67.883-28.117h-19.797l-33.963-169.856zM66.859 478.123c-0.213-1.621-0.427-3.285-0.64-4.949-0.853-7.893-1.408-15.787-1.835-23.637-0.299-5.717-0.384-11.52-0.427-17.323l-0.085-7.253c0.043-6.187 0.213-12.373 0.469-18.56l0.256-5.419c0.384-6.571 0.853-13.141 1.493-19.669 0 0 0.213-1.749 0.213-1.749 3.029-29.013 8.917-57.771 17.536-85.461l0.384-1.195c10.795-34.432 25.771-67.541 44.544-98.389 9.984-16.427 21.461-32.683 34.091-48.427 0 0 4.053-5.035 5.291-6.485 2.987-3.584 6.059-7.083 9.173-10.581 3.243-3.627 6.571-7.211 9.984-10.795 0 0 4.181-4.395 5.163-5.461l32 160.043c2.944 15.019 16.128 25.856 31.36 25.856h46.037c8.533 0 16.597 3.328 22.613 9.387s9.387 14.080 9.387 22.656c0 2.645-0.299 5.248-0.939 7.723l-32 128c-3.584 14.251-16.384 24.235-31.104 24.235h-201.301c-0.427-2.987-1.664-12.544-1.664-12.544zM721.792 682.667c-14.72 0-27.477-9.984-31.061-24.235l-32-128c-4.267-17.109 6.187-34.517 23.296-38.827 2.517-0.64 5.12-0.939 7.765-0.939h67.371c15.701 0 28.971-11.264 31.573-26.752l33.749-202.667c2.603-15.488 15.872-26.709 31.573-26.709h62.336c7.296 15.275 13.696 31.019 19.157 46.933l0.896 2.645c45.099 134.656 23.509 282.965-57.6 398.549h-157.056z" />
<glyph unicode="&#xe927;" glyph-name="love-it-remove" d="M735.488-85.205c-158.805 0-288 129.195-288 288s129.195 288 288 288 288-129.195 288-288-129.195-288-288-288zM735.488 426.795c-123.52 0-224-100.48-224-224s100.48-224 224-224 224 100.48 224 224-100.48 224-224 224zM831.488 74.795c-8.533 0-16.597 3.328-22.613 9.387l-73.387 73.387-73.387-73.387c-6.059-6.059-14.080-9.387-22.613-9.387s-16.597 3.328-22.613 9.387c-12.459 12.459-12.459 32.768 0 45.269l73.387 73.387-73.387 73.387c-12.459 12.459-12.459 32.768 0 45.269 6.059 6.059 14.080 9.387 22.613 9.387s16.597-3.328 22.613-9.387l73.387-73.387 73.387 73.387c6.059 6.059 14.080 9.387 22.613 9.387s16.597-3.328 22.613-9.387c12.459-12.459 12.459-32.768 0-45.269l-73.387-73.387 73.387-73.387c12.459-12.459 12.459-32.768 0-45.269-6.016-6.059-14.080-9.387-22.613-9.387zM350.464 202.795c-8.704 0-17.109 3.584-23.125 9.856l-247.936 258.773c-83.2 83.157-103.723 210.176-50.859 315.861 32.725 65.451 89.003 114.261 158.421 137.387 28.288 9.429 57.515 14.208 86.912 14.208 42.581 0 83.712-9.771 122.283-29.056 26.411-13.227 50.389-30.507 71.253-51.371l44.203-44.16 44.203 44.16c51.712 51.755 120.533 80.256 193.707 80.299 73.259 0 142.037-28.501 193.792-80.213 20.907-20.864 38.187-44.843 51.371-71.253 38.699-77.483 38.357-169.813-0.896-247.040-5.504-10.795-16.427-17.493-28.544-17.493-4.992 0-10.027 1.195-14.507 3.499-15.744 8.021-22.016 27.307-13.995 43.051 30.123 59.179 30.379 129.963 0.725 189.355-10.112 20.224-23.381 38.613-39.381 54.613-39.637 39.637-92.373 61.483-148.437 61.483-56.149 0-108.885-21.888-148.523-61.568l-66.816-66.773c-6.059-6.016-14.080-9.344-22.613-9.344s-16.555 3.328-22.613 9.344l-66.901 66.773c-16 16.043-34.389 29.269-54.613 39.381-29.611 14.805-61.099 22.315-93.739 22.315-22.528 0-44.928-3.669-66.645-10.88-53.163-17.749-96.299-55.168-121.387-105.344-40.491-80.981-24.704-178.432 39.339-242.475l248.405-259.285c12.203-12.757 11.776-33.024-0.981-45.269-5.931-5.675-13.824-8.832-22.101-8.832z" />
<glyph unicode="&#xe928;" glyph-name="love-it" d="M511.915-25.472c-8.661 0-17.109 3.584-23.083 9.856l-409.088 426.667c-83.243 83.157-103.808 210.261-50.859 315.989 46.72 93.397 140.8 151.424 245.504 151.424 42.709 0 83.797-9.728 122.155-28.885 26.411-13.184 50.347-30.464 71.211-51.328l44.203-44.16 44.203 44.16c51.669 51.669 120.491 80.128 193.792 80.128s142.080-28.459 193.792-80.128c20.864-20.864 38.144-44.8 51.328-71.168 52.821-105.643 32.213-232.789-51.328-316.331l-408.661-426.325c-6.059-6.315-14.507-9.899-23.168-9.899zM274.176 814.592c-22.528 0-44.928-3.669-66.603-10.88-53.248-17.749-96.384-55.125-121.472-105.301-40.576-81.024-24.747-178.517 39.339-242.56l386.475-403.072 386.005 402.688c64.384 64.427 80.299 161.963 39.808 242.901-10.112 20.224-23.339 38.571-39.339 54.571-39.595 39.595-92.373 61.397-148.523 61.397s-108.928-21.803-148.523-61.397l-66.816-66.773c-6.059-6.016-14.080-9.344-22.613-9.344s-16.555 3.328-22.613 9.344l-66.816 66.816c-16 15.957-34.347 29.184-54.571 39.296-29.611 14.805-61.141 22.315-93.739 22.315z" />
<glyph unicode="&#xe929;" glyph-name="maps" d="M352-32.042c-12.203 0-24.235 2.304-35.669 6.912l-256 102.4c-36.651 14.677-60.331 49.664-60.331 89.131v613.248c-0.043 8.149 1.493 16.256 4.608 23.979 6.357 15.872 18.517 28.288 34.219 35.029 8.021 3.456 16.512 5.205 25.173 5.205 8.149 0 16.171-1.536 23.851-4.651l252.288-100.949c3.584-1.451 7.381-2.219 11.307-2.261 0.213 0 0.939 0 1.152 0 3.84 0.085 7.68 0.853 11.307 2.304l272.427 109.013c11.435 4.565 23.424 6.912 35.669 6.912s24.235-2.304 35.627-6.912l256-102.4c36.693-14.677 60.373-49.664 60.373-89.173v-613.077c0.043-8.107-1.493-16.213-4.565-23.893-6.4-15.957-18.56-28.373-34.261-35.115-8.021-3.456-16.469-5.163-25.131-5.163v0c-8.149 0-16.171 1.536-23.851 4.608l-252.288 100.779c-3.669 1.451-7.509 2.219-11.392 2.304-0.171 0-0.811 0-0.939 0-3.883-0.043-7.723-0.811-11.392-2.304l-272.469-109.013c-11.477-4.565-23.509-6.912-35.712-6.912zM64 166.4c0-13.184 7.893-24.832 20.139-29.739l235.861-94.336v635.179c-1.237 0.427-2.432 0.896-3.669 1.365l-252.288 100.949-0.043-613.419zM384 42.326l252.331 100.949c1.195 0.469 2.432 0.939 3.669 1.365v635.179l-252.331-100.949c-1.237-0.512-2.432-0.939-3.669-1.365v-635.179zM707.627 143.275l252.331-100.779 0.043 613.248c0 13.184-7.893 24.832-20.096 29.739l-235.904 94.336v-635.179c1.237-0.427 2.432-0.896 3.627-1.365z" />
<glyph unicode="&#xe92a;" glyph-name="messages-bubble" d="M31.915-85.333c-8.576 0-16.597 3.328-22.656 9.387-9.557 9.557-12.075 24.149-6.272 36.352l124.203 260.821c-41.557 72.619-63.403 154.965-63.317 238.763 0.427 263.936 215.467 478.677 479.403 478.677h1.451c89.643 0 177.28-25.045 253.44-72.363 108.715-67.584 184.661-173.653 213.803-298.667s7.979-253.696-59.605-362.411c-67.669-108.885-173.739-184.875-298.581-214.016-36.181-8.448-73.173-12.715-109.909-12.715v0c-82.944 0-164.821 21.931-237.355 63.445l-260.779-124.203c-4.352-2.005-9.088-3.072-13.824-3.072zM543.275 874.667c-228.693 0-415.019-186.069-415.36-414.763-0.128-77.867 21.589-153.984 62.72-220.075 5.803-9.344 6.443-20.779 1.707-30.677l-92.757-194.859 194.816 92.8c4.267 2.048 9.003 3.115 13.739 3.115 5.973 0 11.819-1.664 16.896-4.864 66.176-41.131 141.824-62.848 218.837-62.848 31.872 0 63.915 3.712 95.275 11.051 108.203 25.259 200.107 91.093 258.816 185.472 121.131 194.816 61.184 451.84-133.632 572.928-66.005 41.045-141.952 62.72-219.648 62.72-0.213 0-1.408 0-1.408 0z" />
<glyph unicode="&#xe92b;" glyph-name="move-expand-vertical" d="M512-71.978c-17.067 0-33.109 6.613-45.184 18.645l-329.429 329.429c-12.459 12.459-12.459 32.768 0 45.269 6.059 6.059 14.080 9.387 22.613 9.387s16.597-3.328 22.613-9.387l329.387-329.387 329.344 329.387c6.059 6.059 14.080 9.387 22.613 9.387s16.597-3.328 22.613-9.387c12.459-12.459 12.459-32.768 0-45.269l-329.387-329.387c-12.032-12.075-28.117-18.688-45.184-18.688zM160 522.71c-8.533 0-16.597 3.328-22.613 9.387-6.059 6.016-9.387 14.037-9.387 22.613s3.328 16.597 9.387 22.613l329.387 329.387c12.032 12.075 28.117 18.731 45.227 18.731s33.152-6.656 45.184-18.688l329.429-329.429c6.059-6.016 9.387-14.080 9.387-22.613s-3.328-16.597-9.387-22.613-14.080-9.387-22.613-9.387-16.597 3.328-22.613 9.387l-329.387 329.387-329.387-329.387c-6.016-6.059-14.080-9.387-22.613-9.387z" />
<glyph unicode="&#xe92c;" glyph-name="move-left-right" d="M768 74.667c-8.533 0-16.597 3.328-22.613 9.387s-9.387 14.080-9.387 22.613 3.328 16.597 9.387 22.613l169.387 169.429-882.773 0.043c-17.664 0-32 14.336-32 32s14.336 32 32 32h882.731c17.109 0 33.195-6.699 45.269-18.816s18.731-28.203 18.731-45.312c-0.043-17.024-6.656-33.024-18.645-45.099l-169.472-169.472c-6.016-6.059-14.080-9.387-22.613-9.387zM109.269 490.752c-17.109 0-33.152 6.656-45.227 18.731-12.117 12.075-18.773 28.16-18.773 45.269s6.656 33.152 18.731 45.269l169.387 169.344c6.059 5.973 14.080 9.301 22.613 9.301s16.597-3.328 22.613-9.387c12.459-12.501 12.459-32.768 0-45.269l-169.387-169.301h882.773c17.664 0 32-14.336 32-32s-14.336-32-32-32h-882.731z" />
<glyph unicode="&#xe92d;" glyph-name="navigation-menu" d="M96 138.539c-17.664 0-32 14.336-32 32s14.336 32 32 32h832c17.664 0 32-14.336 32-32s-14.336-32-32-32h-832zM96 394.539c-17.664 0-32 14.336-32 32s14.336 32 32 32h832c17.664 0 32-14.336 32-32s-14.336-32-32-32h-832zM96 650.539c-17.664 0-32 14.336-32 32s14.336 32 32 32h832c17.664 0 32-14.336 32-32s-14.336-32-32-32h-832z" />
<glyph unicode="&#xe92e;" glyph-name="subtract" d="M32 393.046c-17.664 0-32 14.336-32 32s14.336 32 32 32h960c17.664 0 32-14.336 32-32s-14.336-32-32-32h-960z" />
<glyph unicode="&#xe92f;" glyph-name="pencil-circle" d="M257.451 140.118c-8.533 0-16.597 3.328-22.613 9.387-7.083 7.083-10.453 17.237-9.045 27.136l22.613 158.421c0.981 6.827 4.181 13.227 9.045 18.091l322.603 322.603c24.149 24.149 56.277 37.461 90.496 37.461s66.347-13.312 90.496-37.461c24.192-24.192 37.504-56.32 37.504-90.496s-13.312-66.347-37.504-90.496l-322.603-322.603c-4.864-4.864-11.264-8.064-18.048-9.045l-158.421-22.699c-1.536-0.213-3.029-0.299-4.523-0.299zM295.168 209.835l105.6 15.104 315.051 315.051c12.075 12.075 18.731 28.16 18.731 45.269s-6.656 33.152-18.731 45.269c-12.075 12.075-28.16 18.731-45.269 18.731s-33.195-6.656-45.269-18.688l-315.051-315.051-15.061-105.685zM512-85.333c-282.325 0-512 229.675-512 512s229.675 512 512 512c282.325 0 512-229.675 512-512s-229.675-512-512-512zM512 874.667c-247.040 0-448-200.96-448-448s200.96-448 448-448c247.040 0 448 200.96 448 448s-200.96 448-448 448z" />
<glyph unicode="&#xe930;" glyph-name="phone" d="M768.981-86.997c-50.901 0-100.779 14.635-144.299 42.325-0.128 0.085-1.109 0.725-1.237 0.768-230.101 155.563-425.6 351.104-581.077 581.248-68.523 107.691-53.717 245.205 35.84 334.763l33.024 33.024c20.907 20.864 48.683 32.341 78.293 32.341s57.387-11.477 78.251-32.341c0 0 139.179-139.349 139.179-139.349 43.093-43.179 43.051-113.365-0.085-156.459-18.176-18.219-18.176-47.872 0.043-66.091 0 0 223.061-223.104 223.232-223.275 8.235-8.192 19.968-13.056 32.427-13.056s24.192 4.864 32.981 13.653c20.907 20.864 48.683 32.384 78.293 32.384s57.387-11.477 78.293-32.341l139.136-139.093c43.136-43.179 43.136-113.408 0-156.544l-33.024-33.024c-50.901-50.901-118.144-78.933-189.269-78.933zM658.859 9.43c34.048-21.333 71.808-32.299 110.208-32.299 54.059 0 105.131 21.333 143.872 60.075l33.024 33.024c18.176 18.219 18.176 47.872 0 66.091l-139.093 139.051c-8.789 8.789-20.523 13.611-33.024 13.611s-24.235-4.864-33.024-13.653c-20.864-20.864-48.683-32.384-78.251-32.384-29.397 0-57.045 11.349-77.824 32l-223.061 223.104c-43.136 43.179-43.136 113.408 0 156.544 18.091 18.133 18.176 47.701 0.043 65.92-0.213 0.213-0.939 0.981-1.152 1.195l-138.069 138.197c-8.789 8.747-20.523 13.568-32.981 13.568-12.501 0-24.235-4.864-33.067-13.653l-33.024-32.981c-68.139-68.139-79.616-172.587-27.861-253.909 150.613-222.933 340.181-412.629 563.285-563.499v0z" />
<glyph unicode="&#xe931;" glyph-name="pin" d="M512 394.667c-105.856 0-192 86.144-192 192s86.144 192 192 192c105.856 0 192-86.144 192-192s-86.144-192-192-192zM512 714.667c-70.571 0-128-57.429-128-128s57.429-128 128-128c70.571 0 128 57.429 128 128s-57.429 128-128 128zM511.915-85.376c-12.544 0-24.747 3.712-35.285 10.667-7.168 4.736-13.184 10.795-17.963 17.963-29.952 45.099-104.448 164.949-172.331 295.467-83.84 161.28-126.336 278.315-126.336 347.947 0 194.091 157.909 352 352 352s352-157.909 352-352c0-69.589-42.496-186.667-126.336-347.947-67.84-130.475-142.379-250.325-172.331-295.467-9.429-14.251-23.893-23.979-40.619-27.349-4.224-0.853-8.533-1.28-12.8-1.28zM512 874.667c-158.805 0-288-129.195-288-288 0-122.88 187.563-456.619 288-608 100.437 151.381 288 485.163 288 608 0 158.763-129.195 288-288 288z" />
<glyph unicode="&#xe932;" glyph-name="professional-network-linkedin" d="M34.56 599.467c-17.673 0-32-14.327-32-32v0-594.347c0-17.673 14.327-32 32-32v0h207.36c17.673 0 32 14.327 32 32v0 594.347c0 17.673-14.327 32-32 32v0zM209.92 5.12h-143.36v530.347h143.36zM763.307 599.894c-55.364-0.38-107.221-15.047-152.173-40.492l1.56 0.812v7.253c0 17.673-14.327 32-32 32v0h-217.6c-17.673 0-32-14.327-32-32v0-594.347c0-17.673 14.327-32 32-32v0h218.027c17.673 0 32 14.327 32 32v0 309.333c0 32.872 26.648 59.52 59.52 59.52s59.52-26.648 59.52-59.52v0-309.333c0-17.673 14.327-32 32-32v0h228.693c17.673 0 32 14.327 32 32v0 304.213c-0.853 199.253-100.267 322.56-261.547 322.56zM960.427 5.12h-164.693v277.333c0 68.218-55.302 123.52-123.52 123.52s-123.52-55.302-123.52-123.52v0-277.333h-153.6v530.347h154.027v-35.84c0-0.001 0-0.003 0-0.004 0-17.673 14.327-32 32-32 8.413 0 16.068 3.247 21.78 8.555l-0.020-0.018c43.362 36.222 99.389 58.597 160.609 59.73l0.244 0.004c125.013 0 197.12-94.293 197.12-258.56zM138.24 634.454c0.127 0 0.277-0.001 0.427-0.001 76.583 0 138.667 62.083 138.667 138.667s-62.083 138.667-138.667 138.667c-76.583 0-138.666-62.083-138.667-138.666v0c0 0 0 0 0-0.001 0-76.433 61.84-138.423 138.217-138.666h0.023zM138.24 847.787c41.237 0 74.667-33.429 74.667-74.667s-33.429-74.667-74.667-74.667c-41.237 0-74.667 33.429-74.667 74.667v0c0 41.237 33.429 74.667 74.667 74.667v0z" />
<glyph unicode="&#xe933;" glyph-name="rating-half-star" d="M458.24-85.333c-5.76 0-11.52 0.768-17.109 2.219-35.541 9.429-56.789 46.037-47.36 81.579l78.592 286.763-212.864 210.987c-11.221 11.136-18.091 25.899-19.413 41.643-1.451 17.621 4.053 34.773 15.488 48.341 11.477 13.525 27.477 21.803 45.141 23.253l256.811 25.472 134.997 267.008c10.923 22.229 34.304 36.736 59.392 36.736 17.749-0.043 32.085-14.379 32.085-32v-818.517c0-12.245-6.827-23.253-17.792-28.672l-278.187-137.771c-9.088-4.608-19.413-7.040-29.781-7.040zM606.677 590.336c-4.949-9.813-14.464-16.341-25.429-17.408l-274.731-27.221c-1.237-0.085-1.792-0.555-2.133-0.939-0.384-0.469-0.555-1.024-0.512-1.621 0.043-0.555 0.299-1.109 0.683-1.493l226.133-224.128c8.192-8.107 11.392-20.053 8.363-31.147l-83.456-304.555c-0.171-0.683 0.085-1.365 0.341-1.792s0.768-1.024 1.621-1.28c0.299-0.043 0.555-0.043 0.768-0.043 0.555 0 0.853 0.085 1.152 0.213l260.565 129.024v706.475l-113.365-224.085z" />
<glyph unicode="&#xe934;" glyph-name="rating-star" d="M806.144-85.504c-10.325 0-20.693 2.475-29.952 7.125l-264.192 130.816-263.979-130.731c-9.259-4.651-19.285-7.040-29.696-7.040-25.387 0-48.256 14.080-59.648 36.736-7.339 14.592-9.045 31.317-4.864 47.061l78.933 286.763-213.035 210.987c-12.587 12.501-19.584 29.099-19.669 46.848-0.043 17.707 6.784 34.389 19.243 47.019 11.093 11.221 25.899 18.091 41.643 19.413l256.768 25.429 134.656 266.965c8.235 16.085 22.101 27.904 39.125 33.365 6.699 2.176 13.653 3.243 20.608 3.243 10.496 0 21.035-2.56 30.464-7.381 12.587-6.443 22.656-16.512 29.056-29.099 0.043-0.128 134.912-267.307 134.912-267.307l257.28-25.515c36.053-2.987 63.147-35.115 60.117-71.552-1.323-15.744-8.192-30.507-19.413-41.643l-212.864-210.944 78.891-286.507c9.472-35.755-11.733-72.448-47.275-81.877-5.547-1.408-11.307-2.176-17.109-2.176zM512 120.15c4.907 0 9.856-1.152 14.251-3.371l278.528-137.899c0.512-0.256 0.939-0.384 1.365-0.384 2.133 0.469 2.987 1.963 2.603 3.371l-83.755 304.256c-3.072 11.136 0.128 23.083 8.32 31.232l226.133 224.128c0.384 0.384 0.64 0.896 0.683 1.451 0.085 1.28-0.896 2.432-2.133 2.56l-275.285 27.264c-10.965 1.109-20.437 7.595-25.429 17.408l-142.72 282.837c-0.256 0.469-0.683 0.896-1.237 1.195-0.384 0.213-0.853 0.299-1.323 0.299-1.707-0.384-2.261-0.853-2.645-1.579l-142.421-282.539c-4.949-9.813-14.464-16.341-25.429-17.451l-274.773-27.221c-1.365-0.085-1.835-0.555-1.963-0.683-0.469-0.469-0.683-1.024-0.683-1.664s0.213-1.195 0.683-1.621l226.304-224.128c8.192-8.107 11.392-20.053 8.32-31.232l-83.84-304.555c-0.085-0.256-0.085-0.939 0.256-1.664 0.555-1.067 1.664-1.451 2.432-1.451 0.427 0 0.811 0.085 1.152 0.256l278.357 137.856c4.395 2.176 9.344 3.328 14.251 3.328z" />
<glyph unicode="&#xe935;" glyph-name="remove-circle" d="M647.765 258.944c-8.533 0-16.597 3.328-22.613 9.387l-113.152 113.109-113.152-113.109c-6.059-6.059-14.080-9.387-22.613-9.387-8.576 0-16.597 3.328-22.656 9.387-12.459 12.459-12.459 32.768 0 45.227l113.152 113.109-113.109 113.152c-6.059 6.016-9.387 14.080-9.387 22.613s3.328 16.597 9.387 22.613c6.016 6.059 14.080 9.387 22.613 9.387s16.597-3.328 22.613-9.387l113.152-113.109 113.152 113.109c6.059 6.059 14.080 9.387 22.613 9.387s16.597-3.328 22.613-9.387c6.059-6.059 9.387-14.080 9.387-22.613s-3.328-16.597-9.387-22.613l-113.109-113.152 113.152-113.109c12.459-12.459 12.459-32.768 0-45.269-6.059-6.016-14.123-9.344-22.656-9.344zM512-85.333c-282.325 0-512 229.675-512 512s229.675 512 512 512c282.325 0 512-229.675 512-512s-229.675-512-512-512zM512 874.667c-247.040 0-448-200.96-448-448s200.96-448 448-448c247.040 0 448 200.96 448 448s-200.96 448-448 448z" />
<glyph unicode="&#xe936;" glyph-name="ruler-triangle" d="M118.613-62.72c-52.949 0-96 43.051-96 96v818.731c0 17.109 6.656 33.152 18.731 45.269 12.075 12.075 28.16 18.773 45.227 18.773 17.109 0 33.152-6.656 45.269-18.731l850.773-850.773c12.075-12.075 18.731-28.16 18.731-45.269s-6.699-33.152-18.773-45.269c-12.032-12.032-28.075-18.688-45.141-18.688 0-0.043-818.816-0.043-818.816-0.043zM86.613 33.28c0-17.664 14.336-32 32-32h818.773l-178.773 178.731-41.387-41.387c-6.059-6.059-14.080-9.387-22.613-9.387s-16.597 3.328-22.613 9.387c-12.459 12.459-12.459 32.768 0 45.269l41.387 41.387-114.773 114.773-41.344-41.387c-6.059-6.059-14.080-9.387-22.613-9.387s-16.597 3.328-22.656 9.387c-12.459 12.459-12.459 32.768 0 45.269l41.387 41.387-114.773 114.731-41.387-41.387c-6.059-6.059-14.080-9.387-22.613-9.387s-16.597 3.328-22.613 9.387c-6.059 6.016-9.387 14.080-9.387 22.613s3.328 16.597 9.387 22.613l41.387 41.387-114.773 114.773-41.344-41.387c-6.059-6.059-14.080-9.387-22.613-9.387s-16.597 3.328-22.656 9.387c-6.059 6.016-9.387 14.080-9.387 22.613s3.328 16.597 9.387 22.613l41.387 41.387-146.773 146.773v-818.773zM246.613 129.28c-17.664 0-32 14.336-32 32v288c0 13.013 7.765 24.619 19.755 29.568 3.883 1.621 8.021 2.432 12.245 2.432 8.533 0 16.597-3.328 22.656-9.387l288-288c9.173-9.173 11.904-22.869 6.955-34.859s-16.597-19.755-29.568-19.755h-288.043zM457.387 193.28l-178.773 178.773v-178.731h178.773z" />
<glyph unicode="&#xe937;" glyph-name="search" d="M991.787-85.162c-8.533 0-16.597 3.328-22.613 9.387l-277.973 278.016c-32.469-27.776-69.035-50.432-108.928-67.371-52.437-22.272-107.52-33.579-163.712-33.579-53.632 0-106.325 10.283-156.715 30.635-103.723 41.856-184.917 121.557-228.651 224.512-43.733 102.912-44.8 216.747-2.944 320.427s121.557 184.917 224.469 228.651c52.437 22.315 107.477 33.579 163.712 33.579 53.632 0 106.325-10.325 156.715-30.635 103.723-41.856 184.917-121.557 228.651-224.512s44.8-216.747 2.944-320.427c-17.152-42.496-40.789-81.451-70.357-115.968l278.059-278.101c12.459-12.459 12.459-32.768 0-45.269-6.059-6.016-14.123-9.344-22.656-9.344zM418.432 875.094c-47.573 0-94.251-9.557-138.667-28.459-87.211-37.077-154.752-105.856-190.208-193.707s-34.56-184.235 2.475-271.445c37.077-87.211 105.856-154.752 193.707-190.208 42.709-17.237 87.381-25.941 132.779-25.941 47.573 0 94.251 9.557 138.667 28.459 41.557 17.664 78.805 42.581 110.677 74.069 0.427 0.597 0.896 1.109 1.365 1.579 0.683 0.683 1.323 1.237 1.92 1.664 32.555 32.896 58.411 72.235 76.203 116.395 35.456 87.851 34.56 184.235-2.517 271.445-37.035 87.211-105.856 154.752-193.707 190.208-42.624 17.195-87.296 25.941-132.693 25.941z" />
<glyph unicode="&#xe938;" glyph-name="sign-badge-circle" d="M512-85.333c-282.325 0-512 229.675-512 512s229.675 512 512 512c282.325 0 512-229.675 512-512s-229.675-512-512-512zM512 874.667c-247.040 0-448-200.96-448-448s200.96-448 448-448c247.040 0 448 200.96 448 448s-200.96 448-448 448z" />
<glyph unicode="&#xe939;" glyph-name="single-neutral-circle" d="M512 266.667c-141.141 0-256 114.859-256 256s114.859 256 256 256 256-114.859 256-256-114.859-256-256-256zM512 714.667c-105.856 0-192-86.144-192-192s86.144-192 192-192c105.856 0 192 86.144 192 192s-86.144 192-192 192zM512-85.333c-114.219 0-222.336 37.035-312.832 107.093-0.896 0.512-2.816 1.621-4.693 3.499-0.213 0.213-0.469 0.469-0.683 0.725-123.179 98.005-193.792 243.925-193.792 400.683 0 282.325 229.675 512 512 512s512-229.675 512-512c0-156.757-70.613-302.677-193.835-400.683-0.213-0.256-0.427-0.469-0.64-0.683-1.835-1.835-3.712-2.944-4.779-3.584-90.411-70.016-198.528-107.051-312.747-107.051zM268.117 51.158c72.789-47.488 156.672-72.491 243.883-72.491 87.253 0 171.136 25.003 243.925 72.491-68.437 56.405-154.283 87.253-243.883 87.253-89.6 0.043-175.445-30.848-243.925-87.253zM512 874.667c-247.040 0-448-200.96-448-448 0-128.981 55.211-250.667 151.979-335.957 81.707 72.107 186.283 111.659 296.021 111.659 109.781 0 214.315-39.552 296.021-111.616 96.768 85.333 151.979 206.976 151.979 335.957 0 246.997-200.96 447.957-448 447.957z" />
<glyph unicode="&#xe93a;" glyph-name="single-neutral" d="M512 426.667c-141.141 0-256 114.859-256 256s114.859 256 256 256 256-114.859 256-256-114.859-256-256-256zM512 874.667c-105.856 0-192-86.144-192-192s86.144-192 192-192c105.856 0 192 86.144 192 192s-86.144 192-192 192zM928-85.333c-17.664 0-32 14.336-32 32 0 211.755-172.245 384-384 384s-384-172.245-384-384c0-17.664-14.336-32-32-32s-32 14.336-32 32c0 247.040 200.96 448 448 448s448-200.96 448-448c0-17.664-14.336-32-32-32z" />
<glyph unicode="&#xe93b;" glyph-name="social-instagram" d="M287.573-85.333h448c0 0 0 0 0 0 159.144 0 288.183 128.89 288.426 287.976v448.024c-0.243 159.11-129.283 288-288.426 288 0 0 0 0-0.001 0h-448c-158.777-0.485-287.332-129.189-287.573-287.977v-448.023c0.242-158.811 128.796-287.515 287.527-288h0.047zM63.573 650.667c0.242 123.614 100.386 223.758 223.977 224h448.023c123.614-0.242 223.758-100.386 224-223.977v-448.023c-0.242-123.614-100.386-223.758-223.977-224h-448.023c-123.614 0.242-223.758 100.386-224 223.977v0.023zM512 181.334c135.31 0.243 244.907 109.989 244.907 245.333 0 135.494-109.839 245.333-245.333 245.333s-245.333-109.839-245.333-245.333v0c0.243-135.546 110.18-245.333 245.76-245.333 0 0 0 0 0 0v0zM512 608c99.964-0.243 180.907-81.335 180.907-181.333 0-100.148-81.186-181.333-181.333-181.333s-181.333 81.185-181.333 181.333v0c0.243 100.2 81.526 181.333 181.759 181.333 0 0 0 0 0.001 0v0zM857.173 718.934c0-29.455-23.878-53.333-53.333-53.333s-53.333 23.878-53.333 53.333c0 29.455 23.878 53.333 53.333 53.333s53.333-23.878 53.333-53.333z" />
<glyph unicode="&#xe93c;" glyph-name="social-media-facebook" d="M250.453 405.334h96v-458.667c0-17.673 14.327-32 32-32v0h213.333c17.673 0 32 14.327 32 32v0 458.667h132.267c0.054 0 0.118-0.001 0.183-0.001 16.471 0 30.035 12.444 31.805 28.443l0.013 0.144 17.92 170.667c0.117 1.026 0.183 2.215 0.183 3.419 0 17.673-14.327 32-32 32-0.214 0-0.428-0.002-0.642-0.006h-149.728v49.493c0 14.507 4.267 14.933 11.093 14.933h128c17.673 0 32 14.327 32 32v0 170.667c-0.239 17.49-14.473 31.576-31.997 31.576-0.151 0-0.302-0.001-0.452-0.003h-184.724c-213.333 0-231.253-183.040-231.253-238.933v-59.733h-96c-17.673 0-32-14.327-32-32v0-170.667c0-17.673 14.327-32 32-32v0zM282.453 576h96c17.673 0 32 14.327 32 32v0 91.733c0 65.28 21.76 174.933 167.253 174.933h152.747v-106.667h-95.573c-0.71 0.025-1.544 0.039-2.381 0.039-40.295 0-72.96-32.665-72.96-72.96 0-2.116 0.090-4.212 0.267-6.282l-0.019 0.27v-81.067c0-17.673 14.327-32 32-32v0h146.347l-12.8-106.667h-133.547c-17.673 0-32-14.327-32-32v0-458.667h-149.333v458.667c0 17.673-14.327 32-32 32v0h-96z" />
<glyph unicode="&#xe93d;" glyph-name="social-media-google-plus-1" d="M352 74.667c227.413 0 330.667 181.333 330.667 352 0.493 6.384 0.774 13.826 0.774 21.333s-0.281 14.949-0.833 22.315l0.059-0.982c0 17.673-14.327 32-32 32v0h-288.427c-17.673 0-32-14.327-32-32v0-114.773c0-17.673 14.327-32 32-32v0h102.4c-24.759-33.162-63.899-54.403-107.999-54.403-2.683 0-5.348 0.079-7.992 0.234l0.365-0.017c-0.037 0-0.081 0-0.124 0-87.894 0-159.147 71.252-159.147 159.147s71.252 159.147 159.147 159.147c40.156 0 76.839-14.873 104.84-39.41l-0.182 0.157c5.635-5.057 13.123-8.149 21.333-8.149s15.698 3.092 21.363 8.175l-0.030-0.026 94.72 92.587c6.174 5.846 10.016 14.101 10.016 23.253s-3.842 17.407-10.002 23.24l-0.015 0.014c-62.365 57.142-145.822 92.157-237.456 92.157-194.404 0-352-157.596-352-352 0-193.885 156.755-351.158 350.443-351.997h0.080zM352 714.667c0.65 0.005 1.418 0.008 2.187 0.008 63.304 0 121.823-20.485 169.291-55.187l-0.812 0.566-48.64-46.933c-34.667 23.258-77.335 37.12-123.241 37.12-123.241 0-223.147-99.906-223.147-223.147s99.906-223.147 223.147-223.147c0.127 0 0.254 0 0.381 0h-0.020c2.933-0.16 6.366-0.251 9.821-0.251 88.766 0 163.494 60.104 185.707 141.836l0.312 1.348c0.282 1.595 0.443 3.431 0.443 5.304 0 17.673-14.327 32-32 32-1.208 0-2.401-0.067-3.574-0.197l0.144 0.013h-117.76v52.48h224.853c0-2.987 0-6.4 0-9.813 0-138.667-85.333-288-267.52-288-159.058 0-288 128.942-288 288s128.942 288 288 288v0zM992 499.2h-90.453v90.88c0 17.673-14.327 32-32 32s-32-14.327-32-32v0-90.88h-90.88c-17.673 0-32-14.327-32-32s14.327-32 32-32v0h90.88v-90.88c0-17.673 14.327-32 32-32s32 14.327 32 32v0 90.88h90.88c17.673 0 32 14.327 32 32s-14.327 32-32 32v0z" />
<glyph unicode="&#xe93e;" glyph-name="social-media-twitter" d="M3.84 131.84c-0.436-1.98-0.685-4.253-0.685-6.586 0-12.978 7.726-24.152 18.83-29.173l0.201-0.081c103.563-49.592 224.804-79.672 352.785-82.332l0.922-0.015c2.501-0.040 5.452-0.063 8.409-0.063 111.872 0 216.085 32.792 303.551 89.288l-2.2-1.331c147.825 97.761 244.351 262.738 245.759 450.348l0.001 0.212v19.2l76.373 55.040c8.519 5.837 14.037 15.515 14.037 26.482 0 13.513-8.376 25.070-20.22 29.762l-0.217 0.076-59.307 25.6 33.28 72.533c1.517 3.594 2.399 7.773 2.399 12.157 0 17.673-14.327 32-32 32-3.448 0-6.768-0.545-9.879-1.554l0.226 0.063-92.587-30.72c-37.21 29.427-84.78 47.245-136.507 47.36h-0.026c-123.614-0.242-223.758-100.386-224-223.977v-15.383c-116.053-13.653-226.987 45.653-349.013 185.6-5.895 6.701-14.489 10.908-24.065 10.908-15.494 0-28.416-11.012-31.367-25.636l-0.035-0.205c-5.917-23.479-9.313-50.432-9.313-78.179 0-50.25 11.137-97.899 31.077-140.613l-0.858 2.046-59.307 7.68c-1.474 0.24-3.172 0.378-4.903 0.378-17.673 0-32-14.327-32-32 0-2.248 0.232-4.442 0.673-6.559l-0.036 0.208c10.146-71.766 52.222-131.992 111.138-166.668l1.075-0.585-27.733-10.24c-11.942-4.824-20.216-16.321-20.216-29.751 0-4.674 1.002-9.115 2.804-13.118l-0.081 0.202c29.449-58.764 84.84-100.766 150.735-111.209l1.158-0.151c-54.102-21.619-116.808-34.157-182.442-34.157-1.71 0-3.418 0.009-5.124 0.025l0.26-0.002c-15.859-0.007-29.020-11.55-31.548-26.693l-0.026-0.187zM341.333 184.747c7.904 5.894 12.967 15.218 12.967 25.724 0 16.68-12.763 30.38-29.056 31.866l-0.125 0.009c-90.453 7.253-143.787 18.347-177.92 58.453l79.787 29.013c12.4 4.597 21.076 16.324 21.076 30.078 0 16.38-12.307 29.885-28.178 31.774l-0.152 0.015c-63.668 2.515-117.407 42.472-139.996 98.357l-0.377 1.057 91.307-13.653c1.395-0.215 3.004-0.338 4.642-0.338 17.673 0 32 14.327 32 32 0 9.439-4.086 17.923-10.586 23.78l-0.029 0.025c-39.009 35.635-63.386 86.722-63.386 143.503 0 5.657 0.242 11.257 0.716 16.792l-0.050-0.721c128-128 256-177.92 387.84-150.613 14.643 3.067 25.498 15.824 25.6 31.135v42.678c-0.001 0.235-0.002 0.512-0.002 0.79 0 87.894 71.252 159.147 159.147 159.147 41.916 0 80.047-16.205 108.471-42.691l-0.095 0.088c5.689-5.278 13.335-8.517 21.738-8.517 3.673 0 7.201 0.619 10.487 1.758l-0.225-0.068 39.68 13.227-16.213-35.413c-1.63-3.712-2.579-8.038-2.579-12.587s0.949-8.875 2.66-12.793l-0.080 0.206c3.84-9.813 4.693-11.947 54.613-33.707l-42.667-31.573c-8.054-5.884-13.227-15.295-13.227-25.915 0-0.039 0-0.079 0-0.118v0.006-35.413c-1.205-165.394-86.172-310.685-214.543-395.694l-1.777-1.106c-128-85.333-296.533-99.413-478.72-46.507 63.734 15.3 119.699 41.544 168.644 76.903l-1.391-0.957z" />
<glyph unicode="&#xe93f;" glyph-name="social-media-yelp" d="M491.947 936.534l-350.293-120.32c-12.922-4.31-22.073-16.297-22.073-30.421 0-8.352 3.2-15.957 8.44-21.655l-0.021 0.023 325.547-350.72c5.865-6.337 14.225-10.291 23.51-10.291 17.091 0 31.052 13.398 31.954 30.264l0.003 0.080 24.32 469.333c0.034 0.553 0.053 1.199 0.053 1.849 0 17.673-14.327 32-32 32-3.843 0-7.529-0.678-10.943-1.92l0.223 0.071zM449.28 512.427l-240.213 259.413 260.267 88.747zM581.547 350.72h4.267l298.667 40.107c15.693 2.225 27.63 15.568 27.63 31.7 0 6.101-1.707 11.802-4.67 16.654l0.080-0.141-128 218.453c-5.543 9.316-15.458 15.524-26.843 15.786l-0.037 0.001c-0.288 0.010-0.628 0.015-0.968 0.015-11.036 0-20.731-5.74-26.264-14.397l-0.075-0.125-170.667-258.56c-3.262-4.932-5.205-10.986-5.205-17.493 0-17.673 14.327-32 32-32 0.030 0 0.060 0 0.089 0h-0.005zM749.653 581.12l78.933-132.693-182.187-24.32zM543.147 266.667l110.933-281.173c3.952-9.917 12.438-17.277 22.827-19.587l0.213-0.040h6.827c8.833 0.008 16.828 3.594 22.613 9.386v0l180.907 178.773c5.841 5.799 9.457 13.833 9.457 22.712 0 13.876-8.832 25.689-21.181 30.125l-0.223 0.070-291.84 102.4c-3.313 1.27-7.145 2.005-11.149 2.005-17.673 0-32-14.327-32-32 0-4.581 0.963-8.937 2.696-12.877l-0.081 0.205zM805.973 162.56l-110.080-108.373-67.413 170.667zM494.080 285.44c-3.234 1.205-6.971 1.903-10.871 1.903-8.941 0-17.025-3.667-22.831-9.578l-0.005-0.005-213.333-215.893c-5.611-5.759-9.072-13.636-9.072-22.322 0-13.411 8.25-24.895 19.951-29.654l0.214-0.077 236.8-92.587c3.418-1.345 7.377-2.127 11.517-2.133h0.003c0.030 0 0.067 0 0.103 0 17.673 0 32 14.327 32 32 0 0.901-0.037 1.793-0.11 2.676l0.008-0.116-23.040 306.347c-0.32 13.556-9.023 25-21.11 29.37l-0.223 0.070zM328.533 52.054l128 130.987 15.36-187.307zM122.88 177.92c0.752-17.076 14.778-30.635 31.971-30.635 5.816 0 11.27 1.552 15.97 4.264l-0.155-0.082 270.507 147.2c9.953 5.555 16.573 16.022 16.573 28.036 0 13.665-8.565 25.329-20.62 29.917l-0.22 0.073-282.88 107.093c-3.185 1.167-6.863 1.841-10.698 1.841-17.673 0-32-14.327-32-32 0-0.497 0.011-0.992 0.034-1.484l-0.003 0.070zM349.44 322.56l-165.12-90.453-7.253 154.453z" />
<glyph unicode="&#xe940;" glyph-name="social-pinterest" d="M534.613 938.667c-266.667 0-426.667-191.573-426.667-376.32-0.366-5.158-0.575-11.177-0.575-17.245 0-82.462 38.539-155.922 98.589-203.352l0.546-0.416c5.39-4.274 12.291-6.857 19.795-6.857 13.38 0 24.842 8.212 29.621 19.87l0.077 0.213 57.173 133.547c1.208 3.237 1.906 6.977 1.906 10.88s-0.699 7.643-1.978 11.102l0.072-0.222c-3.524 11.651-5.552 25.041-5.552 38.905 0 0.422 0.002 0.844 0.006 1.266v-0.065c-0.022 1.094-0.034 2.384-0.034 3.677 0 110.516 89.591 200.107 200.107 200.107 3.614 0 7.205-0.096 10.772-0.285l-0.498 0.021c106.667 0 170.667-60.16 170.667-156.587 0-128-54.613-229.547-124.16-229.547-0.998-0.124-2.153-0.194-3.325-0.194-7.858 0-14.976 3.171-20.143 8.302l0.002-0.002c-3.703 7.268-5.872 15.85-5.872 24.939 0 6.342 1.056 12.438 3.003 18.121l-0.117-0.393c6.847 23.010 14.533 42.532 23.647 61.229l-1.034-2.349c22.187 51.2 47.787 109.227 24.32 155.307-14.42 26.306-39.791 45.076-69.813 50.263l-0.587 0.084c-9.297 2.579-19.973 4.061-30.995 4.061-27.252 0-52.388-9.060-72.56-24.333l0.301 0.219c-53.76-42.667-68.267-128-70.827-194.987l-69.973-296.96c-6.854-35.043-10.775-75.338-10.775-116.549 0-36.897 3.143-73.059 9.176-108.234l-0.535 3.77c1.336-17.225 13.73-31.212 30.033-34.937l0.261-0.050c1.538-0.211 3.315-0.332 5.12-0.332s3.582 0.121 5.323 0.354l-0.203-0.022c13.267 0.556 24.902 7.088 32.349 16.959l0.078 0.108c44.026 53.881 79.31 116.975 102.449 185.655l1.231 4.212 17.493 64.427c33.156-23.101 74.251-36.965 118.575-37.12h0.039c188.587 0 336.213 194.133 336.213 442.027-1.707 170.667-144.213 347.733-382.72 347.733zM579.413 213.334c-1.038-0.030-2.26-0.047-3.486-0.047-41.94 0-79.169 20.171-102.515 51.341l-0.239 0.333c-5.569 9.903-16.009 16.482-27.986 16.482-15.351 0-28.177-10.809-31.283-25.232l-0.038-0.21s-25.173-94.72-32-119.040c-14.29-44.876-33.719-83.916-58.141-119.24l0.968 1.48c-1.030 11.661-1.617 25.227-1.617 38.931 0 33.649 3.541 66.471 10.271 98.114l-0.547-3.071 70.827 298.667c0.102 0.96 0.16 2.073 0.16 3.2s-0.058 2.24-0.172 3.337l0.012-0.137c2.56 74.667 19.2 128 46.080 149.76 8.109 6.405 18.478 10.274 29.752 10.274 0.641 0 1.278-0.012 1.913-0.037l-0.091 0.003c6.811-0.011 13.434-0.788 19.797-2.249l-0.597 0.115c11.57-1.228 21.615-6.917 28.529-15.288l0.058-0.072c9.813-18.773-11.093-66.133-26.027-100.267-9.568-19.586-18.437-42.821-25.282-66.908l-0.745-3.066c-3.254-10.126-5.129-21.776-5.129-33.863 0-24.178 7.504-46.604 20.311-65.075l-0.248 0.378c16.477-19.947 41.215-32.562 68.899-32.562 1.729 0 3.446 0.049 5.15 0.146l-0.236-0.011c108.8 0 188.16 123.307 188.16 293.547 0 131.84-95.147 220.587-236.8 220.587-2.799 0.106-6.086 0.166-9.388 0.166-146.092 0-264.568-118.235-264.959-264.236v-0.037c-0.001-0.265-0.002-0.579-0.002-0.892 0-16.321 1.866-32.206 5.397-47.454l-0.276 1.413-34.56-81.067c-26.75 37.054-42.784 83.384-42.784 133.459 0 2.581 0.043 5.153 0.127 7.713l-0.010-0.373c0 151.467 128 312.32 363.947 312.32 198.4 0 318.72-144.213 318.72-283.733 0-206.933-123.733-377.6-273.92-377.6z" />
<glyph unicode="&#xe941;" glyph-name="social-video-vimeo" d="M1018.88 640c19.627 110.507-18.773 170.667-54.187 198.827-35.137 25.586-79.158 40.934-126.764 40.934-32.296 0-62.942-7.063-90.477-19.73l1.348 0.556c-102.012-37.769-177.379-125.311-197.254-232.344l-0.292-1.896c-0.269-1.558-0.422-3.352-0.422-5.182 0-17.673 14.327-32 32-32 5.292 0 10.284 1.285 14.681 3.559l-0.179-0.084c32 19.2 59.307 23.040 72.96 9.813s18.347-53.333-5.973-98.987c-27.891-58.466-61.824-108.772-102.036-153.297l0.489 0.55c-19.762 46.504-37.252 101.714-49.63 158.83l-1.143 6.29c-6.827 26.453-11.947 58.027-17.493 91.307-14.507 99.413-31.573 203.52-93.44 246.187-17.601 12.192-39.409 19.477-62.917 19.477-8.857 0-17.472-1.034-25.732-2.988l0.756 0.151c-133.547-28.16-298.667-223.573-305.92-229.973-5.319-5.698-8.584-13.373-8.584-21.81 0-7.987 2.926-15.291 7.765-20.898l-0.035 0.041 38.827-51.2c5.079-6.638 12.584-11.199 21.169-12.355l0.165-0.018c1.331-0.199 2.867-0.312 4.43-0.312 7.373 0 14.157 2.528 19.53 6.763l-0.067-0.051c18.026 15.164 39.587 26.773 63.225 33.418l1.202 0.289c15.787-26.027 51.627-147.2 79.36-237.653 31.573-103.68 61.867-201.813 78.507-236.8 25.553-54.829 70.806-96.893 126.438-117.675l1.562-0.511c11.207-3.25 24.081-5.12 37.392-5.12 0.055 0 0.109 0 0.164 0h-0.009c30.276 0.323 58.302 9.683 81.583 25.504l-0.516-0.331c84.053 52.907 402.347 317.44 459.52 638.72zM459.947 42.667c-40.247 15.831-71.922 46.12-89.188 84.315l-0.412 1.018c-14.507 30.293-45.227 130.56-75.093 227.413-52.48 171.093-75.52 241.92-92.587 263.253-10.487 13.055-26.449 21.34-44.346 21.34-0.31 0-0.619-0.002-0.927-0.007l0.047 0.001c-30.143-2.625-57.409-13.103-80.289-29.352l0.503 0.339-4.267 5.973c54.613 59.733 169.387 172.373 252.16 188.587 3.72 1.050 7.993 1.654 12.407 1.654 9.854 0 19.006-3.010 26.585-8.16l-0.165 0.106c39.68-27.307 55.467-124.587 68.693-202.667 5.973-34.56 11.093-67.413 18.347-96.427 36.693-146.347 56.32-216.747 109.227-216.747 16.64 0 60.587 0 162.133 189.867 35.84 66.987 33.28 137.387-6.4 175.36-17.287 16.009-40.505 25.83-66.018 25.83-6.837 0-13.509-0.705-19.947-2.047l0.632 0.11c28.276 59.105 77.276 104.504 137.375 127.424l1.719 0.576c19.471 9.312 42.323 14.752 66.444 14.752 32.126 0 61.999-9.649 86.879-26.206l-0.576 0.361c32.427-26.88 42.667-74.667 32-138.667-52.907-298.667-352-545.28-429.227-595.2-12.751-9.541-28.832-15.277-46.251-15.277-6.914 0-13.617 0.904-19.997 2.599l0.542-0.123z" />
<glyph unicode="&#xe942;" glyph-name="social-video-youtube-clip" d="M845.227 800h-666.453c-98.734 0-178.773-80.040-178.773-178.773v0-389.12c0-98.734 80.040-178.773 178.773-178.773v0h666.453c98.734 0 178.773 80.040 178.773 178.773v0 389.12c0 98.734-80.040 178.773-178.773 178.773v0zM960 232.107c0-63.388-51.386-114.773-114.773-114.773v0h-666.453c-63.388 0-114.773 51.386-114.773 114.773v0 389.12c0 63.388 51.386 114.773 114.773 114.773h666.453c63.388 0 114.773-51.386 114.773-114.773v0zM422.4 654.934c-4.838 3.094-10.738 4.931-17.067 4.931-17.607 0-31.892-14.22-31.999-31.801v-369.503c0.107-17.592 14.393-31.811 31.999-31.811 6.329 0 12.23 1.838 17.196 5.008l-0.129-0.077 288.853 184.747c8.862 5.788 14.637 15.66 14.637 26.88s-5.775 21.092-14.515 26.805l-0.122 0.075zM437.333 317.014v252.587l197.547-128z" />
<glyph unicode="&#xe943;" glyph-name="tags" d="M621.184-71.978c-25.643 0-49.749 9.984-67.883 28.075l-493.269 493.312c-30.208 30.251-46.848 70.4-46.848 113.109v266.965c0 52.949 43.051 96 96 96h266.965c42.709 0 82.901-16.64 113.109-46.848l493.269-493.269c37.419-37.419 37.419-98.304 0-135.765l-293.504-293.547c-18.091-18.091-42.197-28.032-67.84-28.032zM109.184 861.483c-17.664 0-32-14.336-32-32v-266.965c0-25.643 9.984-49.749 28.117-67.883l493.269-493.312c6.016-6.016 14.037-9.344 22.613-9.344s16.597 3.328 22.613 9.344l293.504 293.547c12.459 12.459 12.459 32.768 0 45.269l-493.269 493.269c-18.133 18.091-42.24 28.075-67.84 28.075h-267.008zM269.184 573.483c-52.949 0-96 43.051-96 96s43.051 96 96 96 96-43.051 96-96-43.051-96-96-96zM269.184 701.483c-17.664 0-32-14.336-32-32s14.336-32 32-32 32 14.336 32 32-14.336 32-32 32z" />
<glyph unicode="&#xe944;" glyph-name="task-list-plain-1" d="M160-85.333c-88.235 0-160 71.765-160 160v704c0 88.235 71.765 160 160 160h704c88.235 0 160-71.765 160-160v-490.965c0-7.552-0.64-15.531-2.005-24.277-0.128-1.28-0.299-2.475-0.555-3.669-5.675-32.427-20.992-61.909-44.331-85.205l-212.992-212.992c-23.296-23.296-52.736-38.613-85.205-44.331-1.195-0.256-2.432-0.427-3.669-0.555-8.747-1.365-16.725-2.005-24.277-2.005h-490.965zM160 874.667c-52.949 0-96-43.051-96-96v-704c0-52.949 43.051-96 96-96h480v160c0 88.235 71.765 160 160 160h160v480c0 52.949-43.051 96-96 96h-704zM800 234.667c-52.949 0-96-43.051-96-96v-144c5.333 3.499 10.283 7.552 14.891 12.16l212.992 212.992c4.565 4.565 8.619 9.557 12.16 14.891h-144.043z" />
<glyph unicode="&#xe945;" glyph-name="task-list-text-1" d="M320 458.24c-17.664 0-32 14.336-32 32s14.336 32 32 32h384c17.664 0 32-14.336 32-32s-14.336-32-32-32h-384zM320 298.24c-17.664 0-32 14.336-32 32s14.336 32 32 32h384c17.664 0 32-14.336 32-32s-14.336-32-32-32h-384zM320 138.24c-17.664 0-32 14.336-32 32s14.336 32 32 32h384c17.664 0 32-14.336 32-32s-14.336-32-32-32h-384zM192-85.76c-52.949 0-96 43.051-96 96v672c0 52.949 43.051 96 96 96h130.688c15.403 90.837 95.872 160 189.312 160s173.909-69.163 189.312-160h130.688c52.949 0 96-43.051 96-96v-672c0-52.949-43.051-96-96-96h-640zM192 714.24c-17.664 0-32-14.336-32-32v-672c0-17.664 14.336-32 32-32h640c17.664 0 32 14.336 32 32v672c0 17.664-14.336 32-32 32h-160c-17.664 0-32 14.379-32 32 0 70.571-57.429 128-128 128s-128-57.429-128-128c0-17.664-14.336-32-32-32h-160zM560 762.24c0-26.51-21.49-48-48-48s-48 21.49-48 48c0 26.51 21.49 48 48 48s48-21.49 48-48z" />
<glyph unicode="&#xe946;" glyph-name="time-clock-circle" d="M512-53.333c-264.661 0-480 215.339-480 480s215.339 480 480 480c264.661 0 480-215.339 480-480s-215.339-480-480-480zM512 842.667c-229.376 0-416-186.624-416-416s186.624-416 416-416 416 186.624 416 416-186.624 416-416 416zM711.979 194.646c-8.533 0-16.597 3.328-22.613 9.387l-199.979 200.021c-2.987 2.987-5.333 6.485-6.955 10.453-0.128 0.341-0.256 0.725-0.384 1.067-1.365 3.669-2.005 7.339-2.005 11.093v160c0 17.664 14.336 32 32 32s32-14.336 32-32v-146.731l190.592-190.635c6.059-6.059 9.387-14.080 9.387-22.613s-3.328-16.597-9.387-22.613-14.123-9.429-22.656-9.429z" />
<glyph unicode="&#xe947;" glyph-name="video-meeting-skype" d="M37.12 500.054c-3.803-22.699-5.977-48.853-5.977-75.514 0-265.097 214.903-480 480-480 27.577 0 54.61 2.325 80.915 6.791l-2.831-0.397c40.369-22.163 88.459-35.2 139.594-35.2 162.593 0 294.4 131.807 294.4 294.4 0 52.903-13.954 102.547-38.382 145.452l0.761-1.452c3.496 21.803 5.493 46.938 5.493 72.54 0 265.121-214.18 480.217-478.952 481.699l-0.141 0.001c-27.044-0.099-53.472-2.423-79.201-6.798l2.828 0.398c-40.873 22.851-89.68 36.307-141.631 36.307-162.593 0-294.4-131.807-294.4-294.4 0-52.833 13.917-102.416 38.286-145.282l-0.761 1.455zM293.12 874.667c41.433-0.067 80.265-11.142 113.746-30.455l-1.106 0.588c7.805-4.504 17.166-7.161 27.147-7.161 3.221 0 6.378 0.277 9.447 0.808l-0.328-0.047c20.91 3.729 44.982 5.862 69.552 5.862 229.515 0 415.573-186.059 415.573-415.573 0-0.711-0.002-1.421-0.005-2.131v0.109c-0.011-23.203-1.872-45.963-5.444-68.151l0.324 2.444c-0.38-2.44-0.597-5.254-0.597-8.119 0-10.206 2.757-19.769 7.566-27.983l-0.142 0.262c19.52-33.159 31.051-73.049 31.051-115.631 0-126.998-102.562-230.042-229.377-230.822h-0.074c-41.24 0.006-79.928 10.926-113.334 30.030l1.12-0.59c-7.807 4.561-17.187 7.253-27.197 7.253-0.039 0-0.077 0-0.116 0h-9.381c-21.167-3.822-45.53-6.007-70.404-6.007-229.515 0-415.573 186.059-415.573 415.573 0 0.612 0.001 1.224 0.004 1.835v-0.095c0.071 23.708 2.085 46.892 5.892 69.467l-0.346-2.48c0.449 2.642 0.706 5.686 0.706 8.789 0 9.943-2.636 19.27-7.248 27.32l0.142-0.269c-19.066 32.853-30.318 72.291-30.318 114.356 0 126.741 102.146 229.624 228.605 230.816l0.113 0.001zM486.4 348.16c49.493-11.947 105.813-25.6 105.813-46.080s-15.36-42.667-73.387-42.667c-37.761 0.012-70.859 19.962-89.34 49.895l-0.26 0.452c-19.866 31.252-53.291 52.355-91.791 55.020l-0.369 0.020c-45.256-2.335-81.067-39.599-81.067-85.227 0-0.037 0-0.075 0-0.112v0.006c-0.001-0.191-0.001-0.418-0.001-0.644 0-39.699 16.331-75.584 42.641-101.303l0.027-0.026c57.202-48.975 132.078-78.783 213.917-78.783 4.746 0 9.469 0.1 14.167 0.299l-0.671-0.023c154.88 0 258.987 88.747 258.987 221.013 0 143.787-145.92 178.773-242.347 201.813-33.707 8.107-90.027 21.76-95.573 34.133 0 28.587 42.667 30.72 55.893 30.72 0.911 0.026 1.983 0.041 3.058 0.041 34.838 0 66.010-15.697 86.828-40.403l0.14-0.171c20.028-24.511 49.55-40.612 82.873-42.651l0.327-0.016c0.919-0.032 1.998-0.050 3.082-0.050 27.335 0 51.99 11.476 69.41 29.873l0.041 0.044c13.76 15.728 22.152 36.455 22.152 59.142 0 4.271-0.297 8.473-0.873 12.586l0.054-0.474c-8.96 66.133-91.733 141.653-252.16 151.040-9.262 1.116-19.988 1.752-30.862 1.752-66.127 0-126.755-23.542-173.961-62.702l0.45 0.363c-37.903-35.929-61.488-86.638-61.488-142.856 0-1.528 0.017-3.051 0.052-4.57l-0.004 0.226c0-142.933 135.253-175.787 234.24-199.68zM358.4 646.827c35.568 29.37 81.624 47.184 131.841 47.184 8.872 0 17.615-0.556 26.194-1.635l-1.022 0.105c124.587-5.973 186.88-58.88 191.573-95.147 0.204-1.245 0.321-2.68 0.321-4.143 0-6.364-2.212-12.212-5.909-16.816l0.041 0.053c-5.772-5.379-13.542-8.681-22.082-8.681-1.088 0-2.164 0.054-3.225 0.158l0.134-0.011c-12.373 0-20.48 6.4-39.253 23.893-32.377 36.707-79.518 59.74-132.038 59.74-0.53 0-1.060-0.002-1.59-0.007l0.081 0.001c-71.68 0-119.467-38.4-119.467-96.853s70.4-78.507 144.64-96.427c113.067-27.307 193.28-53.333 193.28-139.52 0-95.573-76.373-157.013-194.987-157.013-3.903-0.202-8.473-0.317-13.070-0.317-64.271 0-123.291 22.486-169.621 60.019l0.505-0.396c-15.239 14.069-24.847 34.041-25.173 56.261l-0.001 0.059c0 11.947 8.107 22.613 17.067 22.613s23.467-8.96 42.667-32c30.261-44.28 80.513-72.964 137.464-72.964 0.423 0 0.845 0.002 1.267 0.005h-0.065c94.293 0 137.387 54.613 137.387 104.96 0 70.827-78.507 90.027-154.88 108.373-111.787 26.88-185.173 51.2-185.173 137.387-0.052 1.396-0.082 3.035-0.082 4.682 0 38.504 16.243 73.215 42.252 97.653l0.070 0.065z" />
<glyph unicode="&#xe948;" glyph-name="download-bottom" d="M512.043 234.667c-3.755 0-7.467 0.683-11.093 2.005-0.341 0.128-0.64 0.213-0.939 0.341-4.096 1.664-7.637 4.011-10.624 7.040l-191.957 192c-6.059 6.016-9.387 14.080-9.387 22.613s3.328 16.597 9.387 22.613c6.016 6.059 14.080 9.387 22.613 9.387s16.597-3.328 22.613-9.387l137.387-137.387v434.773c0 17.664 14.336 32 32 32s32-14.336 32-32v-434.731l137.387 137.387c6.059 6.059 14.080 9.387 22.613 9.387s16.597-3.328 22.613-9.387c6.059-6.016 9.387-14.080 9.387-22.613s-3.328-16.597-9.387-22.613l-192-192c-2.987-2.987-6.528-5.333-10.496-6.997-0.341-0.128-0.725-0.299-1.109-0.427-3.627-1.365-7.296-2.005-11.008-2.005zM160.043 42.667c-88.235 0-160 71.765-160 160v64c0 17.664 14.336 32 32 32s32-14.336 32-32v-64c0-52.949 43.051-96 96-96h704c52.949 0 96 43.051 96 96v64c0 17.664 14.336 32 32 32s32-14.336 32-32v-64c0-88.235-71.765-160-160-160h-704z" />
<glyph unicode="&#xe949;" glyph-name="pencil" d="M31.915-85.333c-8.448 0-16.683 3.413-22.656 9.387-7.936 7.936-11.136 19.669-8.363 30.549l75.52 294.613c0.256 0.939 0.896 2.688 1.28 3.584 0.043 0.171 0.299 0.853 0.64 1.579 1.749 3.84 3.84 6.955 6.443 9.515l619.776 619.776c35.2 35.371 82.133 54.869 132.181 54.997 0 0 0 0 0 0 50.261 0 97.152-19.371 132.523-54.571l1.237-1.237c35.029-35.883 53.931-83.115 53.376-133.163-0.597-50.048-20.565-96.811-56.32-131.712l-618.411-618.411c-2.645-2.645-5.845-4.821-9.856-6.571-2.048-0.896-3.328-1.408-4.736-1.792l-294.741-75.605c-2.603-0.64-5.248-0.939-7.893-0.939zM76.331-8.917l188.16 48.256-139.989 139.733-48.171-187.989zM326.699 67.67l555.52 555.52-173.824 173.824-555.648-555.691 173.952-173.653zM927.403 668.502c43.989 48 43.307 122.539-2.517 169.472l-0.853 0.853c-23.211 23.083-54.101 35.84-86.912 35.84v16l-0.043-16c-31.317-0.085-60.629-11.563-83.371-32.512l173.696-173.653z" />
<glyph unicode="&#xe94a;" glyph-name="close" d="M992-85.29c-8.533 0-16.597 3.328-22.613 9.387l-457.387 457.344-457.387-457.344c-6.059-6.059-14.080-9.387-22.613-9.387s-16.597 3.328-22.613 9.387c-12.459 12.459-12.459 32.768 0 45.269l457.387 457.387-457.387 457.344c-6.059 6.016-9.387 14.080-9.387 22.613s3.328 16.597 9.387 22.613c6.016 6.059 14.080 9.387 22.613 9.387s16.597-3.328 22.613-9.387l457.387-457.344 457.387 457.387c6.059 6.059 14.080 9.387 22.613 9.387s16.597-3.328 22.613-9.387c6.059-6.059 9.387-14.123 9.387-22.656s-3.328-16.597-9.387-22.613l-457.387-457.387 457.387-457.387c12.459-12.459 12.459-32.768 0-45.269-6.016-6.016-14.080-9.344-22.613-9.344z" />
<glyph unicode="&#xe94b;" glyph-name="picture-sun" d="M96-85.333c-52.949 0-96 43.051-96 96v832c0 52.949 43.051 96 96 96h832c52.949 0 96-43.051 96-96v-832c0-52.949-43.051-96-96-96h-832zM96 874.667c-17.664 0-32-14.336-32-32v-832c0-17.664 14.336-32 32-32h832c17.664 0 32 14.336 32 32v832c0 17.664-14.336 32-32 32h-832zM704 458.667c-88.235 0-160 71.765-160 160s71.765 160 160 160 160-71.765 160-160-71.765-160-160-160zM704 714.667c-52.949 0-96-43.051-96-96s43.051-96 96-96 96 43.051 96 96-43.051 96-96 96zM667.947 91.392c-13.312 0-25.003 8.021-29.824 20.395-5.632 14.421-12.373 28.629-20.096 42.155-8.149 14.336-17.664 28.288-28.203 41.472-0.299 0.341-0.597 0.725-0.896 1.109-41.813 51.925-98.176 88.747-162.944 106.453-27.691 7.595-56.107 11.435-84.437 11.435-54.528 0-108.715-14.464-156.757-41.813-4.821-2.731-10.283-4.181-15.829-4.181-11.477 0-22.144 6.187-27.819 16.171-8.747 15.317-3.371 34.901 11.947 43.648 57.643 32.853 122.795 50.219 188.373 50.219 34.048 0 68.139-4.608 101.376-13.739 67.2-18.389 127.36-54.272 174.933-104.149 36.309 24.277 79.744 37.504 123.819 37.504 52.011 0 102.485-18.219 142.123-51.371 6.571-5.461 10.581-13.184 11.349-21.717s-1.835-16.811-7.339-23.381c-6.059-7.296-15.019-11.477-24.533-11.477v0c-7.509 0-14.805 2.645-20.523 7.467-28.117 23.509-64.043 36.48-101.077 36.48-29.525 0-58.667-8.32-83.499-23.68 5.632-8.277 10.795-16.555 15.488-24.832 9.259-16.213 17.365-33.237 24.107-50.645 3.115-7.979 2.901-16.64-0.512-24.491s-9.728-13.824-17.707-16.939c-3.584-1.365-7.509-2.091-11.52-2.091z" />
<glyph unicode="&#xe94c;" glyph-name="upload-button" d="M512.085-85.376c-17.664 0-32 14.336-32 32v562.731l-137.387-137.387c-6.059-6.059-14.080-9.387-22.613-9.387s-16.597 3.328-22.613 9.387c-12.459 12.459-12.459 32.768 0 45.269l192 192c2.987 2.987 6.485 5.333 10.453 6.955 0.341 0.128 0.683 0.256 1.067 0.384 3.669 1.365 7.339 2.005 11.093 2.005 3.797 0 7.552-0.683 11.136-2.048 0.299-0.085 0.597-0.213 0.853-0.299 4.139-1.707 7.637-4.053 10.667-7.083l191.957-191.957c12.459-12.459 12.459-32.768 0-45.269-6.059-6.059-14.080-9.387-22.613-9.387s-16.597 3.328-22.613 9.387l-137.387 137.387v-562.731c0-17.621-14.336-31.957-32-31.957zM672 74.667c-17.664 0-32 14.336-32 32s14.336 32 32 32h96c52.949 0 96 43.051 96 96v543.957c0 52.949-43.051 96-96 96h-512c-52.949 0-96-43.051-96-96v-543.957c0-52.949 43.051-96 96-96h96.085c17.664 0 32-14.336 32-32s-14.336-32-32-32h-96.085c-88.235 0-160 71.765-160 160v543.957c0 88.235 71.765 160 160 160h512c88.235 0 160-71.765 160-160v-543.957c0-88.235-71.765-160-160-160h-96z" />
<glyph unicode="&#xe94d;" glyph-name="real-estate-dimensions-plan-1" d="M64-85.333c-35.285 0-64 28.715-64 64v448c0 35.285 28.715 64 64 64h96v384c0 35.285 28.715 64 64 64h448c35.285 0 64-28.715 64-64v-160h224c35.285 0 64-28.715 64-64v-384c0-35.285-28.715-64-64-64h-352v-224c0-35.285-28.715-64-64-64h-480zM544-21.333v448h-64c-17.664 0-32 14.336-32 32s14.336 32 32 32h192v384h-448v-384h64c17.664 0 32-14.336 32-32s-14.336-32-32-32h-224v-192h192c17.664 0 32-14.336 32-32v-224h256zM64-21.333h160v64h-160v-64zM224 106.667v64h-160v-64h160zM960 266.667v384h-224v-160c0-35.285-28.715-64-64-64h-64v-160h352z" />
<glyph unicode="&#xe94e;" glyph-name="house-nature" d="M32.043-85.29c-17.664 0-32 14.336-32 32s14.336 32 32 32h32v240l-12.8-9.6c-5.589-4.181-12.203-6.4-19.2-6.4-10.027 0-19.584 4.779-25.6 12.8-10.581 14.123-7.723 34.219 6.4 44.8l256 192c5.589 4.181 12.203 6.4 19.2 6.4s13.611-2.219 19.2-6.4l256-192c14.123-10.581 16.981-30.677 6.4-44.8-6.016-8.021-15.573-12.8-25.6-12.8-6.955 0-13.568 2.219-19.157 6.4l-12.843 9.6v-240h256v67.285c-73.899 14.933-128 79.957-128 156.715 0 197.035 125.995 451.584 131.371 462.293 5.461 10.923 16.427 17.707 28.629 17.707s23.168-6.784 28.629-17.707c5.376-10.752 131.371-265.259 131.371-462.293 0-76.757-54.101-141.781-128-156.715v-67.285h160c17.664 0 32-14.336 32-32s-14.336-32-32-32h-960zM448.043-21.29v288l-160 119.979-160-119.979v-288h64v96c0 52.949 43.051 96 96 96s96-43.051 96-96v-96h64zM320.043-21.29v96c0 17.664-14.336 32-32 32s-32-14.336-32-32v-96h64zM800.043 573.312c-37.077-86.912-96-244.779-96-370.603 0-52.949 43.051-96 96-96s96 43.051 96 96c0 125.909-58.923 283.733-96 370.603zM159.701 618.71c-71.381 0-134.656 48.043-153.856 116.821-23.68 84.864 26.112 173.184 110.976 196.864 14.165 3.925 28.672 5.931 43.179 5.931 27.221 0 54.272-7.125 78.251-20.651 24.107-13.611 43.947-32.768 58.027-55.979 17.451 8.533 36.608 13.013 56.192 13.013 71.083-0.299 128.256-57.941 128-128.512-0.299-70.315-57.685-127.488-128-127.488h-192.768zM159.915 874.326c-8.704 0-17.408-1.195-25.899-3.584-50.901-14.165-80.725-67.115-66.56-117.973 11.52-41.259 49.451-70.059 92.245-70.059 0 0 192.555 0 192.64 0 35.285 0.128 63.872 28.672 64 63.744 0.085 17.109-6.528 33.195-18.56 45.312-11.989 12.16-28.032 18.859-45.099 18.944 0 0 0 0 0 0-17.877 0-34.603-7.253-46.635-19.925-6.059-6.315-14.507-9.941-23.253-9.941-2.603 0-5.163 0.299-7.68 0.939-11.179 2.773-20.011 11.392-23.125 22.485-6.869 24.661-22.955 45.141-45.227 57.685-14.379 8.107-30.592 12.373-46.848 12.373z" />
<glyph unicode="&#xe94f;" glyph-name="layout-bullets" d="M416 682.795c-52.949 0-96 43.051-96 96v64c0 52.949 43.051 96 96 96h512c52.949 0 96-43.051 96-96v-64c0-52.949-43.051-96-96-96h-512zM416 874.795c-17.664 0-32-14.336-32-32v-64c0-17.664 14.336-32 32-32h512c17.664 0 32 14.336 32 32v64c0 17.664-14.336 32-32 32h-512zM416 298.795c-52.949 0-96 43.051-96 96v64c0 52.949 43.051 96 96 96h512c52.949 0 96-43.051 96-96v-64c0-52.949-43.051-96-96-96h-512zM416 490.795c-17.664 0-32-14.336-32-32v-64c0-17.664 14.336-32 32-32h512c17.664 0 32 14.336 32 32v64c0 17.664-14.336 32-32 32h-512zM416-85.205c-52.949 0-96 43.051-96 96v64c0 52.949 43.051 96 96 96h512c52.949 0 96-43.051 96-96v-64c0-52.949-43.051-96-96-96h-512zM416 106.795c-17.664 0-32-14.336-32-32v-64c0-17.664 14.336-32 32-32h512c17.664 0 32 14.336 32 32v64c0 17.664-14.336 32-32 32h-512zM96 682.795c-52.949 0-96 43.051-96 96v64c0 52.949 43.051 96 96 96h64c52.949 0 96-43.051 96-96v-64c0-52.949-43.051-96-96-96h-64zM96 874.795c-17.664 0-32-14.336-32-32v-64c0-17.664 14.336-32 32-32h64c17.664 0 32 14.336 32 32v64c0 17.664-14.336 32-32 32h-64zM96 298.795c-52.949 0-96 43.051-96 96v64c0 52.949 43.051 96 96 96h64c52.949 0 96-43.051 96-96v-64c0-52.949-160-96-160-96zM96 490.795c-17.664 0-32-14.336-32-32v-64c0-17.664 14.336-32 32-32h64c17.664 0 32 14.336 32 32v64c0 17.664-14.336 32-32 32h-64zM96-85.205c-52.949 0-96 43.051-96 96v64c0 52.949 43.051 96 96 96h64c52.949 0 96-43.051 96-96v-64c0-52.949-43.051-96-96-96h-64zM96 106.795c-17.664 0-32-14.336-32-32v-64c0-17.664 14.336-32 32-32h64c17.664 0 32 14.336 32 32v64c0 17.664-14.336 32-32 32h-64z" />
<glyph unicode="&#xe950;" glyph-name="layout-module-1" d="M96 490.795c-52.949 0-96 43.051-96 96v256c0 52.949 43.051 96 96 96h256c52.949 0 96-43.051 96-96v-256c0-52.949-43.051-96-96-96h-256zM96 874.795c-17.664 0-32-14.336-32-32v-256c0-17.664 14.336-32 32-32h256c17.664 0 32 14.336 32 32v256c0 17.664-14.336 32-32 32h-256zM96-85.205c-52.949 0-96 43.051-96 96v256c0 52.949 43.051 96 96 96h256c52.949 0 96-43.051 96-96v-256c0-52.949-43.051-96-96-96h-256zM96 298.795c-17.664 0-32-14.336-32-32v-256c0-17.664 14.336-32 32-32h256c17.664 0 32 14.336 32 32v256c0 17.664-14.336 32-32 32h-256zM672 490.795c-52.949 0-96 43.051-96 96v256c0 52.949 43.051 96 96 96h256c52.949 0 96-43.051 96-96v-256c0-52.949-43.051-96-96-96h-256zM672 874.795c-17.664 0-32-14.336-32-32v-256c0-17.664 14.336-32 32-32h256c17.664 0 32 14.336 32 32v256c0 17.664-14.336 32-32 32h-256zM672-85.205c-52.949 0-96 43.051-96 96v256c0 52.949 43.051 96 96 96h256c52.949 0 96-43.051 96-96v-256c0-52.949-43.051-96-96-96h-256zM672 298.795c-17.664 0-32-14.336-32-32v-256c0-17.664 14.336-32 32-32h256c17.664 0 32 14.336 32 32v256c0 17.664-14.336 32-32 32h-256z" />
<glyph unicode="&#xe951;" glyph-name="share" d="M800-21.333c-105.856 0-192 86.144-192 192 0 18.944 2.859 37.717 8.448 55.979l-237.696 118.827c-36.181-49.579-93.013-78.805-154.752-78.805-105.856 0-192 86.144-192 192s86.144 192 192 192c68.181 0 130.005-35.541 164.651-93.653l223.403 86.869c-2.688 12.885-4.053 25.899-4.053 38.784 0 105.856 86.144 192 192 192s192-86.144 192-192-86.144-192-192-192c-68.139 0-129.963 35.541-164.651 93.611l-223.403-86.869c2.688-12.885 4.053-25.856 4.053-38.741 0-18.944-2.859-37.717-8.491-55.979l237.653-118.827c36.181 49.621 93.056 78.848 154.795 78.848 105.856 0 192-86.144 192-192s-86.101-192.043-191.957-192.043zM800 298.667c-70.571 0-128-57.429-128-128s57.429-128 128-128 128 57.429 128 128-57.429 128-128 128zM224 586.667c-70.571 0-128-57.429-128-128s57.429-128 128-128 128 57.429 128 128c0 70.571-57.429 128-128 128zM800 810.667c-70.571 0-128-57.429-128-128s57.429-128 128-128 128 57.429 128 128-57.429 128-128 128z" />
</font>
</defs>
</svg>
